<svg width="105" height="140" viewBox="0 0 105 140" fill="none" xmlns="http://www.w3.org/2000/svg">
<rect y="48" width="105" height="92" rx="5" fill="#E1FBED"/>
<path d="M12.043 127V118.545H17.5156V119.816H13.5547V122.107H17.2988V123.309H13.5547V125.729H17.5156V127H12.043ZM19.1858 127V120.596H20.6448V121.574H20.7444C21.0491 120.889 21.6644 120.473 22.5901 120.473C24.0198 120.473 24.7991 121.334 24.7991 122.857V127H23.3401V123.197C23.3401 122.201 22.9358 121.697 22.0511 121.697C21.1839 121.697 20.6448 122.307 20.6448 123.268V127H19.1858ZM27.9928 127L25.7135 120.596H27.2721L28.7545 125.576H28.8541L30.3248 120.596H31.86L29.5924 127H27.9928ZM33.788 119.523C33.3075 119.523 32.9149 119.143 32.9149 118.662C32.9149 118.188 33.3075 117.801 33.788 117.801C34.2626 117.801 34.6552 118.188 34.6552 118.662C34.6552 119.143 34.2626 119.523 33.788 119.523ZM33.0556 127V120.596H34.5145V127H33.0556ZM36.2551 127V120.596H37.714V121.58H37.8137C38.0305 120.895 38.6164 120.49 39.4601 120.49C39.6828 120.49 39.9113 120.52 40.0519 120.561V121.867C39.8176 121.82 39.5773 121.785 39.3254 121.785C38.3527 121.785 37.714 122.365 37.714 123.279V127H36.2551ZM43.7964 127.129C41.8745 127.129 40.7143 125.875 40.7143 123.801V123.789C40.7143 121.732 41.8921 120.473 43.7964 120.473C45.7065 120.473 46.8784 121.727 46.8784 123.789V123.801C46.8784 125.875 45.7124 127.129 43.7964 127.129ZM43.7964 125.945C44.81 125.945 45.3843 125.154 45.3843 123.807V123.795C45.3843 122.447 44.8042 121.65 43.7964 121.65C42.7827 121.65 42.2026 122.447 42.2026 123.795V123.807C42.2026 125.154 42.7827 125.945 43.7964 125.945ZM48.2908 127V120.596H49.7498V121.574H49.8494C50.1541 120.889 50.7693 120.473 51.6951 120.473C53.1248 120.473 53.9041 121.334 53.9041 122.857V127H52.4451V123.197C52.4451 122.201 52.0408 121.697 51.156 121.697C50.2888 121.697 49.7498 122.307 49.7498 123.268V127H48.2908ZM55.5743 127V120.596H57.0333V121.592H57.1329C57.4083 120.877 58.0528 120.473 58.8907 120.473C59.7579 120.473 60.3907 120.918 60.6661 121.627H60.7657C61.0762 120.93 61.8145 120.473 62.7052 120.473C63.9942 120.473 64.7677 121.264 64.7677 122.594V127H63.3087V122.951C63.3087 122.119 62.9278 121.697 62.1485 121.697C61.3868 121.697 60.8946 122.266 60.8946 122.998V127H59.4356V122.846C59.4356 122.137 58.9962 121.697 58.2813 121.697C57.5606 121.697 57.0333 122.307 57.0333 123.104V127H55.5743ZM69.1859 127.129C67.2816 127.129 66.1273 125.852 66.1273 123.812V123.807C66.1273 121.791 67.2933 120.473 69.1156 120.473C70.9379 120.473 72.0629 121.75 72.0629 123.684V124.164H67.5863C67.6039 125.312 68.225 125.98 69.2152 125.98C70.0062 125.98 70.4574 125.582 70.598 125.289L70.6156 125.248H72.0043L71.9867 125.301C71.7816 126.127 70.9261 127.129 69.1859 127.129ZM69.1332 121.615C68.3187 121.615 67.7093 122.166 67.598 123.186H70.639C70.5394 122.137 69.9476 121.615 69.1332 121.615ZM73.4694 127V120.596H74.9284V121.574H75.028C75.3327 120.889 75.9479 120.473 76.8737 120.473C78.3034 120.473 79.0827 121.334 79.0827 122.857V127H77.6237V123.197C77.6237 122.201 77.2194 121.697 76.3346 121.697C75.4674 121.697 74.9284 122.307 74.9284 123.268V127H73.4694ZM83.2724 127.029C81.8017 127.029 81.1982 126.537 81.1982 125.301V121.727H80.2021V120.596H81.1982V119.025H82.6806V120.596H84.0341V121.727H82.6806V124.955C82.6806 125.594 82.9326 125.863 83.542 125.863C83.747 125.863 83.8584 125.857 84.0341 125.84V126.965C83.8232 127.006 83.5537 127.029 83.2724 127.029ZM87.1809 127.105C85.9622 127.105 85.0774 126.355 85.0774 125.189V125.178C85.0774 124.035 85.9504 123.367 87.509 123.273L89.1555 123.174V122.623C89.1555 121.984 88.7395 121.633 87.9544 121.633C87.2864 121.633 86.8528 121.873 86.7063 122.295L86.7004 122.318H85.3235L85.3294 122.266C85.47 121.188 86.5012 120.473 88.0247 120.473C89.6712 120.473 90.5969 121.27 90.5969 122.623V127H89.1555V126.121H89.0559C88.7044 126.742 88.0247 127.105 87.1809 127.105ZM86.5188 125.119C86.5188 125.664 86.9817 125.986 87.6262 125.986C88.5051 125.986 89.1555 125.412 89.1555 124.65V124.135L87.7141 124.229C86.8997 124.281 86.5188 124.58 86.5188 125.107V125.119ZM92.355 127V118.117H93.814V127H92.355Z" fill="black"/>
<path d="M17.9696 68.6701C17.6057 69.8386 17.0599 68.9674 16.7421 64.2189C16.5909 61.992 16.3705 57.4383 18.9126 58.2327C21.3547 59.0015 18.7998 65.9717 18.7998 65.9717L17.9696 68.6701ZM21.4034 69.0622C21.4034 69.0622 26.0852 63.2964 24.0224 61.7793C21.8775 60.2008 20.6065 64.5802 20.0248 66.7354C18.7845 71.3301 19.0177 72.332 19.7429 71.348L21.4034 69.0622ZM22.8795 73.7645C22.8795 73.7645 27.2948 70.036 25.9392 68.5778C24.5272 67.0608 22.9205 70.223 22.1645 71.7862C20.5501 75.1175 20.5834 75.9196 21.2804 75.2687L22.8795 73.7645ZM24.5477 78.4386C24.5477 78.4386 28.963 74.7075 27.6048 73.2494C26.1954 71.7324 24.5887 74.8972 23.8327 76.4603C22.2183 79.7917 22.2516 80.5912 22.9487 79.9429L24.5477 78.4386ZM15.5556 69.5234C15.5556 69.5234 8.70587 66.6508 7.83204 69.0545C6.91976 71.5556 11.4786 71.5453 13.7106 71.4992C18.4693 71.3967 19.3636 70.8918 18.213 70.4742L15.5556 69.5234ZM16.7934 73.2084C16.7934 73.2084 9.50796 71.7554 9.1287 74.2847C8.73406 76.919 13.2006 76.0016 15.3763 75.5096C20.0196 74.4666 20.7961 73.7927 19.584 73.6133L16.7934 73.2084ZM18.7614 77.1753C18.7614 77.1753 12.5677 76.1144 12.3063 78.2618C12.0321 80.4989 15.7888 79.62 17.6159 79.1536C21.5187 78.1644 22.1619 77.5776 21.1318 77.452L18.7614 77.1753ZM19.9914 80.481C19.9914 80.481 13.954 78.7487 13.4569 80.8654C12.9444 83.059 16.7882 82.5849 18.6435 82.3158C22.6283 81.7444 23.3279 81.2293 22.3183 80.9961L19.9914 80.481ZM14.6434 63.6551C14.6434 63.6551 11.2761 55.5574 8.36249 57.3205C5.33097 59.1553 9.29527 62.6045 11.2736 64.2394C15.489 67.7476 16.719 67.9167 16.0938 66.6226L14.6434 63.6551Z" fill="#46A771"/>
<path opacity="0.4" d="M17.9696 68.6701C17.6057 69.8386 17.0599 68.9674 16.7421 64.2189C16.5909 61.992 16.3705 57.4383 18.9126 58.2327C21.3547 59.0015 18.7998 65.9717 18.7998 65.9717L17.9696 68.6701ZM21.4034 69.0622C21.4034 69.0622 26.0852 63.2964 24.0224 61.7793C21.8775 60.2008 20.6065 64.5802 20.0248 66.7354C18.7845 71.3301 19.0177 72.332 19.7429 71.348L21.4034 69.0622ZM22.8795 73.7645C22.8795 73.7645 27.2948 70.036 25.9392 68.5778C24.5272 67.0608 22.9205 70.223 22.1645 71.7862C20.5501 75.1175 20.5834 75.9196 21.2804 75.2687L22.8795 73.7645ZM24.5477 78.4386C24.5477 78.4386 28.963 74.7075 27.6048 73.2494C26.1954 71.7324 24.5887 74.8972 23.8327 76.4603C22.2183 79.7917 22.2516 80.5912 22.9487 79.9429L24.5477 78.4386ZM15.5556 69.5234C15.5556 69.5234 8.70587 66.6508 7.83204 69.0545C6.91976 71.5556 11.4786 71.5453 13.7106 71.4992C18.4693 71.3967 19.3636 70.8918 18.213 70.4742L15.5556 69.5234ZM16.7934 73.2084C16.7934 73.2084 9.50796 71.7554 9.1287 74.2847C8.73406 76.919 13.2006 76.0016 15.3763 75.5096C20.0196 74.4666 20.7961 73.7927 19.584 73.6133L16.7934 73.2084ZM18.7614 77.1753C18.7614 77.1753 12.5677 76.1144 12.3063 78.2618C12.0321 80.4989 15.7888 79.62 17.6159 79.1536C21.5187 78.1644 22.1619 77.5776 21.1318 77.452L18.7614 77.1753ZM19.9914 80.481C19.9914 80.481 13.954 78.7487 13.4569 80.8654C12.9444 83.059 16.7882 82.5849 18.6435 82.3158C22.6283 81.7444 23.3279 81.2293 22.3183 80.9961L19.9914 80.481ZM14.6434 63.6551C14.6434 63.6551 11.2761 55.5574 8.36249 57.3205C5.33097 59.1553 9.29527 62.6045 11.2736 64.2394C15.489 67.7476 16.719 67.9167 16.0938 66.6226L14.6434 63.6551Z" fill="white"/>
<path d="M9.87939 60.1675C9.87939 60.1675 17.2827 67.8116 19.2302 71.7836C21.4699 76.3476 23.151 81.6777 23.766 86.0572" stroke="#46A771" stroke-width="1.25197" stroke-linecap="round" stroke-linejoin="round"/>
<path d="M17.6724 69.2158L17.9568 61.3154" stroke="#46A771" stroke-width="1.25197" stroke-linecap="round" stroke-linejoin="round"/>
<path d="M19.2305 71.7836L22.0672 64.9287" stroke="#46A771" stroke-width="1.25197" stroke-linecap="round" stroke-linejoin="round"/>
<path d="M18.6564 70.8482L11.4556 69.9949" stroke="#46A771" stroke-width="1.25197" stroke-linecap="round" stroke-linejoin="round"/>
<path d="M20.8701 75.4018L24.6422 70.3125" stroke="#46A771" stroke-width="1.25197" stroke-linecap="round" stroke-linejoin="round"/>
<path d="M20.1602 73.8872L14.8096 74.2844" stroke="#46A771" stroke-width="1.25197" stroke-linecap="round" stroke-linejoin="round"/>
<path d="M21.5111 77.6851L17.4238 78.1873" stroke="#46A771" stroke-width="1.25197" stroke-linecap="round" stroke-linejoin="round"/>
<path d="M22.5591 80.0913L24.5118 76.9829" stroke="#46A771" stroke-width="1.25197" stroke-linecap="round" stroke-linejoin="round"/>
<path d="M22.8102 81.1675L17.9951 81.3264" stroke="#46A771" stroke-width="1.25197" stroke-linecap="round" stroke-linejoin="round"/>
<path d="M89.519 72.0039C87.9661 72.1217 88.7502 71.0685 94.2008 68.4649C96.7634 67.2426 102.04 64.8466 102.291 68.2241C102.532 71.4657 93.0938 71.7169 93.0938 71.7169L89.519 72.0039ZM90.6645 76.2424C90.6645 76.2424 99.6719 79.0612 100.497 75.9246C101.356 72.6496 95.5846 73.2006 92.7683 73.5235C86.7565 74.2128 85.6828 74.9585 87.1896 75.3506L90.6645 76.2424ZM85.7956 80.1939C85.7956 80.1939 92.2738 83.661 93.3603 81.3752C94.4904 78.9971 89.9982 78.582 87.7969 78.4205C83.1023 78.0772 82.1747 78.4923 83.2689 79.0099L85.7956 80.1939ZM81.0548 84.3555C81.0548 84.3555 87.533 87.8226 88.6195 85.5368C89.7496 83.1587 85.2574 82.7436 83.0587 82.5822C78.3616 82.2388 77.4339 82.6514 78.5281 83.1716L81.0548 84.3555ZM87.3869 69.5438C87.3869 69.5438 87.5714 60.1058 84.3118 60.1981C80.9267 60.2955 83.0792 65.6769 84.1811 68.2907C86.531 73.8669 87.5484 74.6971 87.5125 73.1288L87.3869 69.5438ZM83.6148 72.7342C83.6148 72.7342 81.9158 63.4474 78.7459 64.1829C75.4479 64.9517 78.6281 69.8001 80.2271 72.1269C83.6379 77.1239 84.7987 77.7261 84.4425 76.2116L83.6148 72.7342ZM79.8504 76.9214C79.8504 76.9214 78.2001 69.1056 75.5376 69.8026C72.7675 70.5278 75.5683 74.5536 76.9752 76.4961C79.976 80.6423 80.9702 81.1266 80.6345 79.853L79.8504 76.9214ZM76.5191 79.9248C76.5191 79.9248 75.7067 71.9808 72.9878 72.3882C70.1562 72.8162 72.5112 77.1162 73.7054 79.197C76.25 83.6405 77.1853 84.2248 76.988 82.923L76.5191 79.9248ZM93.9061 65.7127C93.9061 65.7127 101.894 57.9405 98.4444 55.3241C94.8568 52.6026 92.6402 58.9117 91.6254 62.0098C89.4575 68.6392 89.8316 70.1691 91.0719 68.8237L93.9061 65.7127Z" fill="#46A771"/>
<path opacity="0.4" d="M89.519 72.0039C87.9661 72.1217 88.7502 71.0685 94.2008 68.4649C96.7634 67.2426 102.04 64.8466 102.291 68.2241C102.532 71.4657 93.0938 71.7169 93.0938 71.7169L89.519 72.0039ZM90.6645 76.2424C90.6645 76.2424 99.6719 79.0612 100.497 75.9246C101.356 72.6496 95.5846 73.2006 92.7683 73.5235C86.7565 74.2128 85.6828 74.9585 87.1896 75.3506L90.6645 76.2424ZM85.7956 80.1939C85.7956 80.1939 92.2738 83.661 93.3603 81.3752C94.4904 78.9971 89.9982 78.582 87.7969 78.4205C83.1023 78.0772 82.1747 78.4923 83.2689 79.0099L85.7956 80.1939ZM81.0548 84.3555C81.0548 84.3555 87.533 87.8226 88.6195 85.5368C89.7496 83.1587 85.2574 82.7436 83.0587 82.5822C78.3616 82.2388 77.4339 82.6514 78.5281 83.1716L81.0548 84.3555ZM87.3869 69.5438C87.3869 69.5438 87.5714 60.1058 84.3118 60.1981C80.9267 60.2955 83.0792 65.6769 84.1811 68.2907C86.531 73.8669 87.5484 74.6971 87.5125 73.1288L87.3869 69.5438ZM83.6148 72.7342C83.6148 72.7342 81.9158 63.4474 78.7459 64.1829C75.4479 64.9517 78.6281 69.8001 80.2271 72.1269C83.6379 77.1239 84.7987 77.7261 84.4425 76.2116L83.6148 72.7342ZM79.8504 76.9214C79.8504 76.9214 78.2001 69.1056 75.5376 69.8026C72.7675 70.5278 75.5683 74.5536 76.9752 76.4961C79.976 80.6423 80.9702 81.1266 80.6345 79.853L79.8504 76.9214ZM76.5191 79.9248C76.5191 79.9248 75.7067 71.9808 72.9878 72.3882C70.1562 72.8162 72.5112 77.1162 73.7054 79.197C76.25 83.6405 77.1853 84.2248 76.988 82.923L76.5191 79.9248ZM93.9061 65.7127C93.9061 65.7127 101.894 57.9405 98.4444 55.3241C94.8568 52.6026 92.6402 58.9117 91.6254 62.0098C89.4575 68.6392 89.8316 70.1691 91.0719 68.8237L93.9061 65.7127Z" fill="white"/>
<path d="M95.7719 58.458C95.7719 58.458 90.2111 70.7891 86.4313 74.9533C82.0903 79.7402 76.5782 84.2247 71.6914 86.9974" stroke="#46A771" stroke-width="1.25197" stroke-linecap="round" stroke-linejoin="round"/>
<path d="M88.7324 71.9065L98.2011 68.5393" stroke="#46A771" stroke-width="1.25197" stroke-linecap="round" stroke-linejoin="round"/>
<path d="M86.4312 74.9534L95.8614 75.0918" stroke="#46A771" stroke-width="1.25197" stroke-linecap="round" stroke-linejoin="round"/>
<path d="M87.2642 73.8361L84.8989 64.926" stroke="#46A771" stroke-width="1.25197" stroke-linecap="round" stroke-linejoin="round"/>
<path d="M82.9229 78.5898L90.7054 80.6578" stroke="#46A771" stroke-width="1.25197" stroke-linecap="round" stroke-linejoin="round"/>
<path d="M84.3811 77.0395L81.4009 70.9021" stroke="#46A771" stroke-width="1.25197" stroke-linecap="round" stroke-linejoin="round"/>
<path d="M80.5268 80.4144L78.0181 75.8223" stroke="#46A771" stroke-width="1.25197" stroke-linecap="round" stroke-linejoin="round"/>
<path d="M78.1743 82.782L82.7639 83.6328" stroke="#46A771" stroke-width="1.25197" stroke-linecap="round" stroke-linejoin="round"/>
<path d="M77.0213 83.5816L74.5767 77.967" stroke="#46A771" stroke-width="1.25197" stroke-linecap="round" stroke-linejoin="round"/>
<path d="M67.8833 73.0134C67.3708 73.795 67.153 73.0416 67.9166 69.4847C68.2754 67.8165 69.0724 64.4237 70.7713 65.5435C72.4037 66.6198 69.0596 71.2068 69.0596 71.2068L67.8833 73.0134ZM70.3229 74.0231C70.3229 74.0231 74.9765 70.7712 73.7798 69.2234C72.537 67.6141 70.6817 70.5636 69.8001 72.0243C67.9218 75.1403 67.8833 75.9245 68.6239 75.3556L70.3229 74.0231ZM70.4203 77.79C70.4203 77.79 74.4486 75.9783 73.7516 74.6227C73.0341 73.2107 71.1891 75.1967 70.3024 76.1859C68.4138 78.2949 68.2703 78.8894 68.9212 78.5588L70.4203 77.79ZM70.6612 81.575C70.6612 81.575 74.6895 79.7632 73.9925 78.4076C73.275 76.9956 71.4299 78.9816 70.5433 79.9708C68.6572 82.0798 68.5137 82.6743 69.1621 82.3437L70.6612 81.575ZM65.9332 73.1185C65.9332 73.1185 61.5051 69.5667 60.357 71.1479C59.1603 72.7956 62.5122 73.7463 64.1625 74.1819C67.6783 75.107 68.442 74.9251 67.6835 74.3767L65.9332 73.1185ZM66.0665 76.0859C66.0665 76.0859 61.0208 73.4849 60.2084 75.2633C59.3653 77.1161 62.8402 77.3826 64.5417 77.48C68.1729 77.6901 68.8853 77.357 68.032 76.9675L66.0665 76.0859ZM66.6789 79.4173C66.6789 79.4173 62.3507 77.3339 61.705 78.8586C61.0336 80.4423 63.9805 80.5884 65.4207 80.6319C68.4958 80.7242 69.0929 80.4269 68.3625 80.1194L66.6789 79.4173ZM66.8865 82.1054C66.8865 82.1054 62.8043 79.5762 62.0022 81.0214C61.1643 82.5257 64.0779 82.9818 65.5078 83.1791C68.5547 83.5994 69.1774 83.3662 68.4855 82.9818L66.8865 82.1054ZM66.4867 68.6186C66.4867 68.6186 65.718 61.9559 63.2041 62.6452C60.5902 63.3551 62.7787 66.7223 63.8857 68.347C66.2458 71.8116 67.112 72.1908 66.9275 71.112L66.4867 68.6186Z" fill="#46A771"/>
<path opacity="0.4" d="M67.8833 73.0134C67.3708 73.795 67.153 73.0416 67.9166 69.4847C68.2754 67.8165 69.0724 64.4237 70.7713 65.5435C72.4037 66.6198 69.0596 71.2068 69.0596 71.2068L67.8833 73.0134ZM70.3229 74.0231C70.3229 74.0231 74.9765 70.7712 73.7798 69.2234C72.537 67.6141 70.6817 70.5636 69.8001 72.0243C67.9218 75.1403 67.8833 75.9245 68.6239 75.3556L70.3229 74.0231ZM70.4203 77.79C70.4203 77.79 74.4486 75.9783 73.7516 74.6227C73.0341 73.2107 71.1891 75.1967 70.3024 76.1859C68.4138 78.2949 68.2703 78.8894 68.9212 78.5588L70.4203 77.79ZM70.6612 81.575C70.6612 81.575 74.6895 79.7632 73.9925 78.4076C73.275 76.9956 71.4299 78.9816 70.5433 79.9708C68.6572 82.0798 68.5137 82.6743 69.1621 82.3437L70.6612 81.575ZM65.9332 73.1185C65.9332 73.1185 61.5051 69.5667 60.357 71.1479C59.1603 72.7956 62.5122 73.7463 64.1625 74.1819C67.6783 75.107 68.442 74.9251 67.6835 74.3767L65.9332 73.1185ZM66.0665 76.0859C66.0665 76.0859 61.0208 73.4849 60.2084 75.2633C59.3653 77.1161 62.8402 77.3826 64.5417 77.48C68.1729 77.6901 68.8853 77.357 68.032 76.9675L66.0665 76.0859ZM66.6789 79.4173C66.6789 79.4173 62.3507 77.3339 61.705 78.8586C61.0336 80.4423 63.9805 80.5884 65.4207 80.6319C68.4958 80.7242 69.0929 80.4269 68.3625 80.1194L66.6789 79.4173ZM66.8865 82.1054C66.8865 82.1054 62.8043 79.5762 62.0022 81.0214C61.1643 82.5257 64.0779 82.9818 65.5078 83.1791C68.5547 83.5994 69.1774 83.3662 68.4855 82.9818L66.8865 82.1054ZM66.4867 68.6186C66.4867 68.6186 65.718 61.9559 63.2041 62.6452C60.5902 63.3551 62.7787 66.7223 63.8857 68.347C66.2458 71.8116 67.112 72.1908 66.9275 71.112L66.4867 68.6186Z" fill="white"/>
<path d="M63.7295 65.0642C63.7295 65.0642 67.5605 72.2394 68.1551 75.5708C68.8418 79.3967 68.9546 83.6659 68.4831 87.0152" stroke="#46A771" stroke-width="1.25197" stroke-linecap="round" stroke-linejoin="round"/>
<path d="M67.5503 73.3519L69.421 67.6091" stroke="#46A771" stroke-width="1.25197" stroke-linecap="round" stroke-linejoin="round"/>
<path d="M68.1548 75.5658L71.6809 71.1274" stroke="#46A771" stroke-width="1.25197" stroke-linecap="round" stroke-linejoin="round"/>
<path d="M67.9292 74.7588L62.8169 72.6165" stroke="#46A771" stroke-width="1.25197" stroke-linecap="round" stroke-linejoin="round"/>
<path d="M68.5981 78.5717L72.4394 75.6248" stroke="#46A771" stroke-width="1.25197" stroke-linecap="round" stroke-linejoin="round"/>
<path d="M68.3959 77.3084L64.3804 76.4756" stroke="#46A771" stroke-width="1.25197" stroke-linecap="round" stroke-linejoin="round"/>
<path d="M68.5879 80.3808L65.4795 79.8914" stroke="#46A771" stroke-width="1.25197" stroke-linecap="round" stroke-linejoin="round"/>
<path d="M68.8521 82.372L70.9405 80.4988" stroke="#46A771" stroke-width="1.25197" stroke-linecap="round" stroke-linejoin="round"/>
<path d="M68.811 83.215L65.2388 82.3181" stroke="#46A771" stroke-width="1.25197" stroke-linecap="round" stroke-linejoin="round"/>
<path d="M10.8276 79.261C10.9839 80.0016 10.4278 79.6966 8.82363 77.2314C8.05999 76.0885 6.57626 73.6976 8.18811 73.3671C9.72566 73.0416 10.4611 77.5748 10.4611 77.5748L10.8276 79.261ZM12.7982 78.4358C12.7982 78.4358 13.5823 73.9155 12.014 73.7181C10.3791 73.5157 11.0172 76.2602 11.3529 77.5979C12.0704 80.45 12.4984 80.9292 12.5906 80.1604L12.7982 78.4358ZM15.0148 80.5269C15.0148 80.5269 16.2679 77.1827 15.0968 76.806C13.8796 76.414 13.9667 78.5998 14.0308 79.6761C14.1666 81.9594 14.4254 82.3822 14.6048 81.821L15.0148 80.5269ZM17.3211 82.5436C17.3211 82.5436 18.5742 79.1995 17.4031 78.8228C16.1859 78.4307 16.273 80.6166 16.3371 81.6929C16.4729 83.9761 16.7317 84.3989 16.9111 83.8377L17.3211 82.5436ZM9.77691 80.4423C9.77691 80.4423 5.21809 80.9548 5.47179 82.5206C5.72804 84.1452 8.19068 82.764 9.37971 82.0644C11.9141 80.5756 12.2447 80.0323 11.4964 80.1553L9.77691 80.4423ZM11.5707 82.0567C11.5707 82.0567 7.21433 83.4713 7.76273 84.9499C8.34443 86.4874 10.4739 84.6475 11.5015 83.725C13.69 81.7621 13.9052 81.1624 13.1979 81.4315L11.5707 82.0567ZM13.8283 83.5943C13.8283 83.5943 10.169 84.8909 10.6764 86.1287C11.1889 87.41 12.9622 85.8084 13.8078 85.0063C15.6016 83.2945 15.7836 82.7845 15.1891 83.028L13.8283 83.5943ZM15.4889 85.0063C15.4889 85.0063 11.704 85.9237 12.0755 87.205C12.4625 88.5426 14.3819 87.1306 15.3095 86.4208C17.2878 84.9115 17.5082 84.422 16.8932 84.6014L15.4889 85.0063ZM7.51672 77.5646C7.51672 77.5646 3.25772 74.2153 2.21988 76.045C1.13848 77.9489 4.31607 78.6075 5.87924 78.9022C9.21058 79.5198 9.92554 79.2405 9.21058 78.7305L7.51672 77.5646Z" fill="#46A771"/>
<path opacity="0.4" d="M10.8276 79.261C10.9839 80.0016 10.4278 79.6966 8.82363 77.2314C8.05999 76.0885 6.57626 73.6976 8.18811 73.3671C9.72566 73.0416 10.4611 77.5748 10.4611 77.5748L10.8276 79.261ZM12.7982 78.4358C12.7982 78.4358 13.5823 73.9155 12.014 73.7181C10.3791 73.5157 11.0172 76.2602 11.3529 77.5979C12.0704 80.45 12.4984 80.9292 12.5906 80.1604L12.7982 78.4358ZM15.0148 80.5269C15.0148 80.5269 16.2679 77.1827 15.0968 76.806C13.8796 76.414 13.9667 78.5998 14.0308 79.6761C14.1666 81.9594 14.4254 82.3822 14.6048 81.821L15.0148 80.5269ZM17.3211 82.5436C17.3211 82.5436 18.5742 79.1995 17.4031 78.8228C16.1859 78.4307 16.273 80.6166 16.3371 81.6929C16.4729 83.9761 16.7317 84.3989 16.9111 83.8377L17.3211 82.5436ZM9.77691 80.4423C9.77691 80.4423 5.21809 80.9548 5.47179 82.5206C5.72804 84.1452 8.19068 82.764 9.37971 82.0644C11.9141 80.5756 12.2447 80.0323 11.4964 80.1553L9.77691 80.4423ZM11.5707 82.0567C11.5707 82.0567 7.21433 83.4713 7.76273 84.9499C8.34443 86.4874 10.4739 84.6475 11.5015 83.725C13.69 81.7621 13.9052 81.1624 13.1979 81.4315L11.5707 82.0567ZM13.8283 83.5943C13.8283 83.5943 10.169 84.8909 10.6764 86.1287C11.1889 87.41 12.9622 85.8084 13.8078 85.0063C15.6016 83.2945 15.7836 82.7845 15.1891 83.028L13.8283 83.5943ZM15.4889 85.0063C15.4889 85.0063 11.704 85.9237 12.0755 87.205C12.4625 88.5426 14.3819 87.1306 15.3095 86.4208C17.2878 84.9115 17.5082 84.422 16.8932 84.6014L15.4889 85.0063ZM7.51672 77.5646C7.51672 77.5646 3.25772 74.2153 2.21988 76.045C1.13848 77.9489 4.31607 78.6075 5.87924 78.9022C9.21058 79.5198 9.92554 79.2405 9.21058 78.7305L7.51672 77.5646Z" fill="white"/>
<path d="M3.90088 77.1289C3.90088 77.1289 10.1997 79.0047 12.4471 80.5704C15.0022 82.3301 17.2791 84.4628 19.202 86.8974" stroke="#46A771" stroke-width="1.25197" stroke-linecap="round" stroke-linejoin="round"/>
<path d="M10.8325 79.6557L8.60303 75.3096" stroke="#46A771" stroke-width="1.25197" stroke-linecap="round" stroke-linejoin="round"/>
<path d="M12.4473 80.5705L11.9092 76.0168" stroke="#46A771" stroke-width="1.25197" stroke-linecap="round" stroke-linejoin="round"/>
<path d="M11.8579 80.2397L7.7168 81.9515" stroke="#46A771" stroke-width="1.25197" stroke-linecap="round" stroke-linejoin="round"/>
<path d="M14.4253 82.0261L14.9224 78.1438" stroke="#46A771" stroke-width="1.25197" stroke-linecap="round" stroke-linejoin="round"/>
<path d="M13.5848 81.4241L10.8198 83.2537" stroke="#46A771" stroke-width="1.25197" stroke-linecap="round" stroke-linejoin="round"/>
<path d="M15.4579 83.0637L13.4053 84.5679" stroke="#46A771" stroke-width="1.25197" stroke-linecap="round" stroke-linejoin="round"/>
<path d="M16.7495 84.0456L16.8648 81.7803" stroke="#46A771" stroke-width="1.25197" stroke-linecap="round" stroke-linejoin="round"/>
<path d="M17.2109 84.5503L14.6611 86.0878" stroke="#46A771" stroke-width="1.25197" stroke-linecap="round" stroke-linejoin="round"/>
<path d="M52.2309 95.0772C71.3767 95.0772 86.8974 93.2817 86.8974 91.0668C86.8974 88.8519 71.3767 87.0564 52.2309 87.0564C33.0852 87.0564 17.5645 88.8519 17.5645 91.0668C17.5645 93.2817 33.0852 95.0772 52.2309 95.0772Z" fill="#263238"/>
<path d="M41.1173 30.3874C41.1173 30.3874 40 27.5173 37.2913 26.2001C34.5827 24.883 27.6843 28.7063 27.0539 30.3233C26.4235 31.9403 28.8041 31.5764 28.2019 32.7603C27.5997 33.9442 19.5917 35.9533 18.5461 38.5825C17.5006 41.2117 19.8684 42.3418 19.4353 43.6231C19.0023 44.9044 16.1296 47.3362 17.4263 50.132C18.7229 52.9278 24.522 51.216 26.3005 50.724C28.0789 50.232 27.1205 51.5645 27.7509 52.5665C28.3813 53.5684 32.9606 52.4076 34.5443 50.9418C36.1279 49.476 35.4694 52.587 37.0146 52.1744C37.5784 52.0258 38.9006 49.2044 40.1768 44.4867C41.453 39.769 42.3217 34.5772 41.1173 30.3874Z" fill="#263238"/>
<path d="M32.9889 66.8659C32.9889 66.8659 31.6897 67.9396 30.0086 69.6668C28.3276 71.394 25.8188 77.293 25.2115 78.2078C24.6042 79.1227 23.3024 80.2579 23.3024 80.2579C23.3024 80.2579 20.9961 80.1041 20.891 80.6448C20.7859 81.1855 20.7193 82.2003 20.4118 82.7257C20.1043 83.251 19.5123 83.9608 19.7916 84.8654C20.071 85.77 20.422 86.6797 20.9141 86.4388C21.4061 86.1979 21.5649 85.8699 21.9852 84.6706C22.4055 83.4714 25.8496 80.9062 27.054 79.2149C28.2584 77.5236 32.7813 73.0519 33.3682 72.4113C33.955 71.7707 34.9057 71.968 35.2824 69.267C35.6591 66.5661 34.2727 65.9972 32.9889 66.8659Z" fill="white" stroke="#263238" stroke-width="0.3" stroke-linecap="round" stroke-linejoin="round"/>
<path d="M33.3679 72.4138C33.9573 71.7706 34.9055 71.9705 35.2822 69.2696C35.6589 66.5686 34.2725 65.9972 32.9887 66.8659C32.9887 66.8659 31.6895 67.9396 30.0084 69.6668C28.5247 71.1889 26.4029 75.9476 25.5034 77.6851C25.9466 78.2731 26.5578 78.7127 27.2562 78.9458C28.6938 77.0905 32.8093 73.0237 33.3679 72.4138Z" fill="#46A771" stroke="#263238" stroke-width="0.3" stroke-miterlimit="10"/>
<path d="M22.244 81.8236L22.8488 80.2425C22.1723 80.2271 20.9653 80.2579 20.891 80.6448C20.7885 81.183 20.7193 82.2003 20.4118 82.7256C20.1043 83.251 19.5123 83.9608 19.7916 84.8654C20.071 85.77 20.422 86.6771 20.9141 86.4388C21.4061 86.2005 21.5649 85.8699 21.9852 84.6706C22.1748 84.1325 22.9692 83.3227 23.8969 82.4386C23.2819 81.7903 22.244 81.8236 22.244 81.8236Z" fill="#B2B2B2" stroke="#263238" stroke-width="0.3" stroke-linecap="round" stroke-linejoin="round"/>
<path d="M36.5535 38.3545C36.5535 38.3545 33.7603 37.7933 32.9659 39.3437C32.1715 40.894 34.6956 47.8437 34.8032 48.5997C34.9108 49.3556 31.3873 51.7901 30.4058 54.4936C29.4244 57.1971 30.0599 59.652 31.2156 63.1474C32.3713 66.6427 33.5424 68.3212 33.2221 69.9023C32.9018 71.4834 32.9274 73.5156 33.4784 75.048C34.0293 76.5804 37.0045 83.8274 36.9404 84.7858C36.8763 85.7442 35.7206 87.0536 35.7462 87.4816C35.7719 87.9095 37.9757 89.2882 38.7726 90.1415C39.5696 90.9949 41.1379 91.5279 41.2763 91.0564C41.4147 90.5849 40.0078 89.2626 39.7695 88.0172C39.5312 86.7718 38.7035 83.9939 38.5471 82.3283C38.3908 80.6626 37.2351 71.5654 37.0865 70.5865C36.9994 69.7695 36.9831 68.9464 37.0378 68.1265C37.0378 68.1265 39.8566 63.3498 40.3333 59.5342C40.8099 55.7185 41.1558 50.4037 41.5069 49.1455C41.858 47.8873 42.6344 45.0454 42.6344 45.0454C42.9482 43.5776 43.0346 42.0703 42.8907 40.5763C42.6063 38.4211 39.4312 37.9957 38.4088 38.088C37.3863 38.1803 36.5535 38.3545 36.5535 38.3545Z" fill="white" stroke="#263238" stroke-width="0.3" stroke-linecap="round" stroke-linejoin="round"/>
<path d="M38.3881 81.0035C38.0293 77.9284 37.199 71.4092 37.0734 70.5943C36.9863 69.7773 36.97 68.9542 37.0248 68.1343C37.0248 68.1343 39.8436 63.3576 40.3202 59.542C40.4612 58.4016 40.5893 57.128 40.7123 55.8672C38.775 55.7878 34.7723 55.3547 31.0309 53.2483C30.7776 53.6425 30.5672 54.0626 30.4031 54.5014C29.419 57.2126 30.0571 59.6598 31.2128 63.1552C32.3686 66.6505 33.5397 68.329 33.2193 69.9101C32.899 71.4913 32.9246 73.5234 33.4756 75.0558C33.801 75.9834 35.026 79.0098 35.928 81.4622C36.775 81.5489 37.6291 81.3896 38.3881 81.0035Z" fill="#46A771"/>
<mask id="mask0_140_781" style="mask-type:luminance" maskUnits="userSpaceOnUse" x="29" y="53" width="12" height="29">
<path d="M38.3881 81.0035C38.0293 77.9284 37.199 71.4092 37.0734 70.5943C36.9863 69.7773 36.97 68.9542 37.0248 68.1343C37.0248 68.1343 39.8436 63.3576 40.3202 59.542C40.4612 58.4016 40.5893 57.128 40.7123 55.8672C38.775 55.7878 34.7723 55.3547 31.0309 53.2483C30.7776 53.6425 30.5672 54.0626 30.4031 54.5014C29.419 57.2126 30.0571 59.6598 31.2128 63.1552C32.3686 66.6505 33.5397 68.329 33.2193 69.9101C32.899 71.4913 32.9246 73.5234 33.4756 75.0558C33.801 75.9834 35.026 79.0098 35.928 81.4622C36.775 81.5489 37.6291 81.3896 38.3881 81.0035Z" fill="white"/>
</mask>
<g mask="url(#mask0_140_781)">
<path opacity="0.3" d="M37.2194 56.6002C36.9119 58.6502 36.2943 57.5253 36.0868 57.1127C35.8792 56.7001 33.9265 54.2298 34.0367 55.1575C34.1469 56.0851 35.4769 66.4738 36.0868 69.7641C36.6147 72.583 37.4398 77.849 37.9267 81.1932C38.0779 81.1368 38.2291 81.0753 38.388 80.9984C38.0292 77.9234 37.1989 71.4042 37.0734 70.5893C36.9863 69.7722 36.97 68.9491 37.0247 68.1292C37.0247 68.1292 39.8435 63.3526 40.3201 59.5369C40.4611 58.3965 40.5892 57.123 40.7122 55.8622C39.5944 55.8127 38.4813 55.6859 37.3809 55.4829C37.3271 55.8801 37.2732 56.2542 37.2194 56.6002Z" fill="#263238"/>
<path d="M36.1328 58.5552C36.1328 58.5552 36.735 64.8668 36.8529 67.191" stroke="#263238" stroke-width="0.3" stroke-linecap="round" stroke-linejoin="round"/>
</g>
<path d="M38.3881 81.0035C38.0293 77.9284 37.199 71.4092 37.0734 70.5943C36.9863 69.7773 36.97 68.9542 37.0248 68.1343C37.0248 68.1343 39.8436 63.3576 40.3202 59.542C40.4612 58.4016 40.5893 57.128 40.7123 55.8672C38.775 55.7878 34.7723 55.3547 31.0309 53.2483C30.7776 53.6425 30.5672 54.0626 30.4031 54.5014C29.419 57.2126 30.0571 59.6598 31.2128 63.1552C32.3686 66.6505 33.5397 68.329 33.2193 69.9101C32.899 71.4913 32.9246 73.5234 33.4756 75.0558C33.801 75.9834 35.026 79.0098 35.928 81.4622C36.775 81.5489 37.6291 81.3896 38.3881 81.0035Z" stroke="#263238" stroke-width="0.3" stroke-miterlimit="10"/>
<path d="M30.188 55.1933C31.4693 56.5643 34.6674 59.0628 40.4895 58.0788C40.8765 54.4912 41.1865 50.2578 41.4941 49.1533C41.8451 47.8951 42.6216 45.0532 42.6216 45.0532C42.9354 43.5854 43.0218 42.0781 42.8778 40.5841C42.5934 38.4289 39.4184 38.0036 38.3959 38.0958C37.3734 38.1881 36.5637 38.3521 36.5637 38.3521C36.5637 38.3521 33.7705 37.7909 32.9761 39.3412C32.1817 40.8916 34.7058 47.8413 34.8134 48.5972C34.9211 49.3532 31.3975 51.7876 30.4161 54.4912C30.3187 54.7346 30.2495 54.9652 30.188 55.1933Z" fill="#808080"/>
<mask id="mask1_140_781" style="mask-type:luminance" maskUnits="userSpaceOnUse" x="30" y="38" width="13" height="21">
<path d="M30.188 55.1933C31.4693 56.5643 34.6674 59.0628 40.4895 58.0788C40.8765 54.4912 41.1865 50.2578 41.4941 49.1533C41.8451 47.8951 42.6216 45.0532 42.6216 45.0532C42.9354 43.5854 43.0218 42.0781 42.8778 40.5841C42.5934 38.4289 39.4184 38.0036 38.3959 38.0958C37.3734 38.1881 36.5637 38.3521 36.5637 38.3521C36.5637 38.3521 33.7705 37.7909 32.9761 39.3412C32.1817 40.8916 34.7058 47.8413 34.8134 48.5972C34.9211 49.3532 31.3975 51.7876 30.4161 54.4912C30.3187 54.7346 30.2495 54.9652 30.188 55.1933Z" fill="white"/>
</mask>
<g mask="url(#mask1_140_781)">
<path opacity="0.3" d="M42.8678 40.5919C42.5834 38.4368 39.4084 38.0114 38.3859 38.1036C37.3634 38.1959 36.5537 38.3599 36.5537 38.3599C36.5537 38.3599 36.4255 38.3343 36.218 38.3086L36.4998 39.7309C36.4998 39.7309 39.6902 42.8188 39.7927 44.5664C39.8952 46.3141 38.5576 47.7568 38.2552 49.6096C37.9528 51.4623 37.5351 54.5477 37.2302 56.6054C36.9252 58.6631 36.3051 57.5305 36.0975 57.1179C35.8899 56.7053 33.9373 54.235 34.0475 55.1627C34.0782 55.4189 34.2012 56.4132 34.3806 57.7791C35.972 58.2916 37.9964 58.5068 40.5077 58.0814C40.8947 54.4938 41.2047 50.2605 41.5122 49.156C41.8633 47.8978 42.6398 45.0559 42.6398 45.0559C42.9436 43.5883 43.0205 42.0828 42.8678 40.5919Z" fill="#263238"/>
</g>
<path d="M30.188 55.1933C31.4693 56.5643 34.6674 59.0628 40.4895 58.0788C40.8765 54.4912 41.1865 50.2578 41.4941 49.1533C41.8451 47.8951 42.6216 45.0532 42.6216 45.0532C42.9354 43.5854 43.0218 42.0781 42.8778 40.5841C42.5934 38.4289 39.4184 38.0036 38.3959 38.0958C37.3734 38.1881 36.5637 38.3521 36.5637 38.3521C36.5637 38.3521 33.7705 37.7909 32.9761 39.3412C32.1817 40.8916 34.7058 47.8413 34.8134 48.5972C34.9211 49.3532 31.3975 51.7876 30.4161 54.4912C30.3187 54.7346 30.2495 54.9652 30.188 55.1933Z" stroke="#263238" stroke-width="0.3" stroke-linecap="round" stroke-linejoin="round"/>
<path d="M35.085 37.1349C35.3046 37.5881 35.4706 38.0654 35.5795 38.5571C35.6487 39.0952 36.2279 40.0434 37.0838 40.7942C37.9397 41.545 38.4701 40.8327 38.4317 39.8153C38.3932 38.798 37.8602 36.3584 37.8602 36.3584C37.8602 36.3584 36.0895 37.3091 35.085 37.1349Z" fill="white" stroke="#263238" stroke-width="0.3" stroke-linecap="round" stroke-linejoin="round"/>
<path d="M32.6298 33.1346C32.5515 33.1212 32.4712 33.1255 32.3947 33.147C32.3182 33.1685 32.2475 33.2068 32.1876 33.2591C32.1277 33.3113 32.0803 33.3762 32.0486 33.4491C32.0169 33.522 32.0019 33.601 32.0045 33.6804C31.9635 34.3185 33.0654 34.6055 33.0654 34.6055L32.6298 33.1346Z" fill="white" stroke="#263238" stroke-width="0.3" stroke-linecap="round" stroke-linejoin="round"/>
<path d="M36.4791 29.0574C36.4791 29.0574 34.6366 31.8762 32.707 32.7577C32.707 32.7577 32.9633 35.9251 34.0831 36.9603C35.203 37.9956 37.0173 37.7983 38.0884 36.9603C39.1596 36.1224 38.6958 31.0664 38.6958 31.0664C38.6958 31.0664 37.0429 30.2157 36.4791 29.0574Z" fill="white"/>
<mask id="mask2_140_781" style="mask-type:luminance" maskUnits="userSpaceOnUse" x="32" y="29" width="7" height="9">
<path d="M36.4791 29.0574C36.4791 29.0574 34.6366 31.8762 32.707 32.7577C32.707 32.7577 32.9633 35.9251 34.0831 36.9603C35.203 37.9956 37.0173 37.7983 38.0884 36.9603C39.1596 36.1224 38.6958 31.0664 38.6958 31.0664C38.6958 31.0664 37.0429 30.2157 36.4791 29.0574Z" fill="white"/>
</mask>
<g mask="url(#mask2_140_781)">
<path opacity="0.3" d="M36.4793 29.0574L36.4281 29.1317L36.4511 29.4956C37.161 31.1038 37.5426 32.8375 37.5736 34.5951C37.5922 35.1562 37.4969 35.7153 37.2934 36.2385C37.0899 36.7618 36.7825 37.2383 36.3896 37.6394C37.0068 37.5704 37.5939 37.3357 38.0886 36.9603C39.1598 36.1249 38.696 31.0664 38.696 31.0664C38.696 31.0664 37.0431 30.2157 36.4793 29.0574Z" fill="#263238"/>
</g>
<path d="M36.4791 29.0574C36.4791 29.0574 34.6366 31.8762 32.707 32.7577C32.707 32.7577 32.9633 35.9251 34.0831 36.9603C35.203 37.9956 37.0173 37.7983 38.0884 36.9603C39.1596 36.1224 38.6958 31.0664 38.6958 31.0664C38.6958 31.0664 37.0429 30.2157 36.4791 29.0574Z" stroke="#263238" stroke-width="0.3" stroke-linecap="round" stroke-linejoin="round"/>
<path d="M35.1824 32.4941C35.2398 32.7584 35.2398 33.0319 35.1824 33.2962C35.0927 33.8241 34.6545 34.0086 35.2874 34.1034" stroke="#263238" stroke-width="0.3" stroke-linecap="round" stroke-linejoin="round"/>
<path d="M34.752 34.9284C34.752 34.9284 35.777 35.4255 37.0583 34.0674" stroke="#263238" stroke-width="0.3" stroke-linecap="round" stroke-linejoin="round"/>
<path d="M33.3145 33.278C33.3145 33.278 33.7322 32.6117 34.6137 32.991" stroke="#263238" stroke-width="0.3" stroke-linecap="round" stroke-linejoin="round"/>
<path d="M36.228 32.8323C36.228 32.8323 37.2531 31.9917 38.0577 32.6324" stroke="#263238" stroke-width="0.3" stroke-linecap="round" stroke-linejoin="round"/>
<path d="M35.9048 31.2613C36.1095 30.9927 36.4083 30.8116 36.7412 30.7546C37.074 30.6975 37.4161 30.7687 37.6986 30.9538" stroke="#263238" stroke-width="0.3" stroke-linecap="round" stroke-linejoin="round"/>
<path d="M69.4135 52.3574C81.7552 48.1246 88.3288 34.6884 84.0961 22.3467C79.8634 10.005 66.4271 3.43135 54.0854 7.66408C41.7437 11.8968 35.1701 25.3331 39.4028 37.6748C43.6355 50.0165 57.0718 56.5901 69.4135 52.3574Z" fill="#46A771"/>
<mask id="mask3_140_781" style="mask-type:luminance" maskUnits="userSpaceOnUse" x="38" y="6" width="48" height="48">
<path d="M69.4135 52.3574C81.7552 48.1246 88.3288 34.6884 84.0961 22.3467C79.8634 10.005 66.4271 3.43135 54.0854 7.66408C41.7437 11.8968 35.1701 25.3331 39.4028 37.6748C43.6355 50.0165 57.0718 56.5901 69.4135 52.3574Z" fill="white"/>
</mask>
<g mask="url(#mask3_140_781)">
<path d="M58.5481 19.5271L60.9569 20.0268L61.7769 20.8776L62.8455 21.0416L63.1863 22.0589L62.9378 22.7457L62.2074 23.0788L60.4188 22.7867L60.3701 22.5689L61.2157 21.9795L60.634 20.9006L59.035 20.6828L58.1816 19.9525L58.5481 19.5271Z" fill="white"/>
<path d="M77.9542 41.7499L76.0451 41.4296L73.7388 41.1375L72.0423 41.5142L70.3818 41.5372L68.7161 42.306L67.7423 42.5802L67.1401 42.7135L66.1382 43.6411L65.1413 44.3228L63.4577 43.7206L63.5013 42.1036L62.4763 41.9268L61.382 42.183L61.1053 41.7012L60.9976 40.6916L60.4851 40.2278L59.742 40.5071L59.6446 41.1042L58.7272 41.3604L57.7047 40.566L57.0846 39.3232L57.5664 37.6088L59.1782 37.3654L59.6907 37.6524L60.3468 37.5063L61.0592 36.8324L61.8279 36.8913L63.1912 38.3699L63.5628 38.2315L63.1733 36.9964L62.6992 36.4121L62.5762 35.3486L64.4084 34.0212L64.2316 31.9378L64.9491 31.0307L65.3822 29.6136L65.8947 29.383L66.971 28.281L66.9274 27.8326L66.0639 28.0889L65.8076 27.6865L65.2054 27.8224L64.3239 28.2477L64.6032 27.438L66.397 26.4642L66.7276 25.8748L67.7526 26.8998L68.3548 27.2816L69.0723 26.8921L68.5854 26.2541L67.2555 25.7031L65.6154 24.5166L64.0394 23.8888L62.6787 23.9631L61.8741 23.4506L60.9515 23.4275L60.89 23.6838L61.1335 25.2931L61.4743 25.7928L61.3692 27.6532L60.0803 26.9844V26.1823L58.799 25.8902L58.1711 25.3982L58.1429 23.9682L59.4729 22.4666L59.291 21.1289L58.7016 21.3185L58.2096 20.9111L57.8636 20.1244L57.4664 20.1551L57.4434 21.0802L56.8642 21.3237L56.1672 19.4684L55.6547 19.2915L54.8167 19.1327L54.048 19.7656L55.3907 20.578L55.8161 21.4595L53.5098 20.4191L51.8134 19.2454L51.3752 17.7924L49.8556 17.6694L48.9202 18.6253C48.69 18.8451 48.4479 19.0521 48.195 19.2454C47.786 19.4465 47.3629 19.6178 46.9291 19.7579V20.7368L45.6812 21.0725L45.9246 21.6491L48.0233 21.5287L49.3174 22.4461L49.7428 24.3629L49.5173 26.1926L50.0298 27.9864L49.0919 31.0102L49.6506 35.077L50.6525 37.268L51.7544 38.8619L52.6001 38.7876L52.1363 37.9522L51.552 37.3936L51.0113 36.2507L51.4803 36.0303L52.6847 37.8241L53.62 39.4539L53.9352 40.8761L55.2549 41.9011L57.4203 42.857L60.4365 42.9902L61.4948 43.618L62.3456 44.3484L63.4654 44.7302L64.7467 44.7917L65.9383 44.4688C65.9383 44.4688 66.0049 45.03 66.0664 45.3017C66.1279 45.5733 65.5667 46.6778 65.5667 46.6778L65.208 47.9052L65.9152 49.0123L67.2273 49.2378L69.3132 50.6113L70.1512 50.7702L70.3357 51.5902L70.515 51.9515C74.6191 50.321 78.1811 47.568 80.7935 44.0076L80.7346 43.6027L81.6059 40.5968L80.7858 40.2611L77.9542 41.7499Z" fill="white"/>
<path d="M78.8463 18.8686L78.0185 17.9614L76.9935 16.9364L76.4092 15.345L77.4343 15.2887L77.3676 14.73L76.6424 14.8325L77.1831 14.4251L77.7572 13.8972L77.6342 13.3488L76.7834 12.621L76.3811 11.473C72.3354 8.28792 67.3604 6.51082 62.2124 6.41184C57.0643 6.31286 52.0247 7.8974 47.8596 10.9246L49.3203 11.5396L48.7719 12.6953L47.7802 13.1464L47.998 14.6506L47.5957 14.9068L47.1831 15.6295L47.4573 16.6033L48.4106 16.5059L48.2338 17.5309L49.164 17.3233L50.3018 14.9478L50.2736 14.0356L51.7804 13.5846L52.0187 12.844L53.569 12.3315L53.5255 11.3654L54.6633 11.0553C54.9385 10.8085 55.2362 10.588 55.5525 10.3967C55.8834 10.3958 56.214 10.419 56.5416 10.4659L57.5103 10.94L58.6583 10.6837L59.5091 9.8637L60.7904 9.69201C60.9973 9.77227 61.2205 9.80214 61.4413 9.77913C61.7155 9.71763 62.4509 9.1513 62.4509 9.1513L64.2575 9.78426L65.0263 10.1328L65.2082 10.9528L66.0539 10.8785L66.2179 10.3275L67.002 10.4967L67.0456 10.9477L65.5081 11.7498L66.7048 12.7466L68.9188 13.4026L69.9823 14.3149L71.2124 14.1586L71.3635 13.5512L71.7761 13.3437L70.1104 12.5749L69.211 12.6595L69.8747 12.2828L69.0111 11.4986L69.9285 11.2424L71.279 11.6319L71.8453 12.885L72.6141 13.4616L73.4597 14.9402L74.8589 15.5475L75.2587 17.3541L76.7014 17.8974L76.7783 18.5098V19.2581L77.3266 20.1704L77.5445 20.6393L78.5106 20.5958L78.7437 19.5707L78.8463 18.8686Z" fill="white"/>
<path d="M78.3335 13.1951L78.4027 13.5103L78.3232 14.4456L78.6589 15.1759L79.3098 15.2605L79.5405 16.3009L78.8229 16.1728L79.315 19.1659L78.9254 20.5163L79.6942 21.9514L80.5501 22.4485L81.2061 25.4057L82.4285 27.5455L83.5842 29.1266L84.9167 29.1753L85.1115 27.9837L85.2576 27.8043C85.1644 26.8271 85.0112 25.8567 84.7989 24.8983C83.8213 20.4539 81.5754 16.3885 78.3335 13.1951Z" fill="white"/>
<path d="M65.6157 15.6604L61.6488 14.8762L60.0754 15.2837L59.9217 16.4086L59.1068 15.8423L57.9639 16.383L58.256 18.2153L59.3989 18.7073L59.8807 17.508L60.8826 18.1461L62.9071 19.248L63.5887 20.7625L65.4133 22.2539L67.6273 21.3595L67.389 20.5498L66.6894 19.7297L66.0949 17.5644L66.4357 16.5111L65.6157 15.6604Z" fill="white"/>
<path d="M68.8365 16.2087L67.9678 16.1729L67.3887 16.9314L68.1241 18.433L68.8365 18.2767V16.2087Z" fill="white"/>
<path d="M74.159 16.1191L72.0782 15.5476L71.5503 14.9736L71.1479 15.235L71.7732 16.2447L72.419 17.5951L73.3133 17.7412L73.4286 17.4875L72.7521 16.7751L74.2974 17.0058L74.159 16.1191Z" fill="white"/>
<path d="M62.5637 39.4255L62.3945 39.692L64.1448 39.8202L64.9725 40.4403L66.0359 40.3199L66.2871 39.6331L64.9776 39.6946L62.5637 39.4255Z" fill="white"/>
<path d="M67.6656 39.3845L66.5894 39.9662L66.8507 40.3685L68.2755 40.0534L68.4498 39.5537L67.9706 39.7177L67.6656 39.3845Z" fill="white"/>
<path d="M58.5481 19.5271L60.9569 20.0268L61.7769 20.8776L62.8455 21.0416L63.1863 22.0589L62.9378 22.7457L62.2074 23.0788L60.4188 22.7867L60.3701 22.5689L61.2157 21.9795L60.634 20.9006L59.035 20.6828L58.1816 19.9525L58.5481 19.5271Z" stroke="#263238" stroke-width="0.3" stroke-miterlimit="10"/>
<path d="M77.9542 41.7499L76.0451 41.4296L73.7388 41.1375L72.0423 41.5142L70.3818 41.5372L68.7161 42.306L67.7423 42.5802L67.1401 42.7135L66.1382 43.6411L65.1413 44.3228L63.4577 43.7206L63.5013 42.1036L62.4763 41.9268L61.382 42.183L61.1053 41.7012L60.9976 40.6916L60.4851 40.2278L59.742 40.5071L59.6446 41.1042L58.7272 41.3604L57.7047 40.566L57.0846 39.3232L57.5664 37.6088L59.1782 37.3654L59.6907 37.6524L60.3468 37.5063L61.0592 36.8324L61.8279 36.8913L63.1912 38.3699L63.5628 38.2315L63.1733 36.9964L62.6992 36.4121L62.5762 35.3486L64.4084 34.0212L64.2316 31.9378L64.9491 31.0307L65.3822 29.6136L65.8947 29.383L66.971 28.281L66.9274 27.8326L66.0639 28.0889L65.8076 27.6865L65.2054 27.8224L64.3239 28.2477L64.6032 27.438L66.397 26.4642L66.7276 25.8748L67.7526 26.8998L68.3548 27.2816L69.0723 26.8921L68.5854 26.2541L67.2555 25.7031L65.6154 24.5166L64.0394 23.8888L62.6787 23.9631L61.8741 23.4506L60.9515 23.4275L60.89 23.6838L61.1335 25.2931L61.4743 25.7928L61.3692 27.6532L60.0803 26.9844V26.1823L58.799 25.8902L58.1711 25.3982L58.1429 23.9682L59.4729 22.4666L59.291 21.1289L58.7016 21.3185L58.2096 20.9111L57.8636 20.1244L57.4664 20.1551L57.4434 21.0802L56.8642 21.3237L56.1672 19.4684L55.6547 19.2915L54.8167 19.1327L54.048 19.7656L55.3907 20.578L55.8161 21.4595L53.5098 20.4191L51.8134 19.2454L51.3752 17.7924L49.8556 17.6694L48.9202 18.6253C48.69 18.8451 48.4479 19.0521 48.195 19.2454C47.786 19.4465 47.3629 19.6178 46.9291 19.7579V20.7368L45.6812 21.0725L45.9246 21.6491L48.0233 21.5287L49.3174 22.4461L49.7428 24.3629L49.5173 26.1926L50.0298 27.9864L49.0919 31.0102L49.6506 35.077L50.6525 37.268L51.7544 38.8619L52.6001 38.7876L52.1363 37.9522L51.552 37.3936L51.0113 36.2507L51.4803 36.0303L52.6847 37.8241L53.62 39.4539L53.9352 40.8761L55.2549 41.9011L57.4203 42.857L60.4365 42.9902L61.4948 43.618L62.3456 44.3484L63.4654 44.7302L64.7467 44.7917L65.9383 44.4688C65.9383 44.4688 66.0049 45.03 66.0664 45.3017C66.1279 45.5733 65.5667 46.6778 65.5667 46.6778L65.208 47.9052L65.9152 49.0123L67.2273 49.2378L69.3132 50.6113L70.1512 50.7702L70.3357 51.5902L70.515 51.9515C74.6191 50.321 78.1811 47.568 80.7935 44.0076L80.7346 43.6027L81.6059 40.5968L80.7858 40.2611L77.9542 41.7499Z" stroke="#263238" stroke-width="0.3" stroke-miterlimit="10"/>
<path d="M78.8463 18.8686L78.0185 17.9614L76.9935 16.9364L76.4092 15.345L77.4343 15.2887L77.3676 14.73L76.6424 14.8325L77.1831 14.4251L77.7572 13.8972L77.6342 13.3488L76.7834 12.621L76.3811 11.473C72.3354 8.28792 67.3604 6.51082 62.2124 6.41184C57.0643 6.31286 52.0247 7.8974 47.8596 10.9246L49.3203 11.5396L48.7719 12.6953L47.7802 13.1464L47.998 14.6506L47.5957 14.9068L47.1831 15.6295L47.4573 16.6033L48.4106 16.5059L48.2338 17.5309L49.164 17.3233L50.3018 14.9478L50.2736 14.0356L51.7804 13.5846L52.0187 12.844L53.569 12.3315L53.5255 11.3654L54.6633 11.0553C54.9385 10.8085 55.2362 10.588 55.5525 10.3967C55.8834 10.3958 56.214 10.419 56.5416 10.4659L57.5103 10.94L58.6583 10.6837L59.5091 9.8637L60.7904 9.69201C60.9973 9.77227 61.2205 9.80214 61.4413 9.77913C61.7155 9.71763 62.4509 9.1513 62.4509 9.1513L64.2575 9.78426L65.0263 10.1328L65.2082 10.9528L66.0539 10.8785L66.2179 10.3275L67.002 10.4967L67.0456 10.9477L65.5081 11.7498L66.7048 12.7466L68.9188 13.4026L69.9823 14.3149L71.2124 14.1586L71.3635 13.5512L71.7761 13.3437L70.1104 12.5749L69.211 12.6595L69.8747 12.2828L69.0111 11.4986L69.9285 11.2424L71.279 11.6319L71.8453 12.885L72.6141 13.4616L73.4597 14.9402L74.8589 15.5475L75.2587 17.3541L76.7014 17.8974L76.7783 18.5098V19.2581L77.3266 20.1704L77.5445 20.6393L78.5106 20.5958L78.7437 19.5707L78.8463 18.8686Z" stroke="#263238" stroke-width="0.3" stroke-miterlimit="10"/>
<path d="M78.3335 13.1951L78.4027 13.5103L78.3232 14.4456L78.6589 15.1759L79.3098 15.2605L79.5405 16.3009L78.8229 16.1728L79.315 19.1659L78.9254 20.5163L79.6942 21.9514L80.5501 22.4485L81.2061 25.4057L82.4285 27.5455L83.5842 29.1266L84.9167 29.1753L85.1115 27.9837L85.2576 27.8043C85.1644 26.8271 85.0112 25.8567 84.7989 24.8983C83.8213 20.4539 81.5754 16.3885 78.3335 13.1951Z" stroke="#263238" stroke-width="0.3" stroke-miterlimit="10"/>
<path d="M65.6157 15.6604L61.6488 14.8762L60.0754 15.2837L59.9217 16.4086L59.1068 15.8423L57.9639 16.383L58.256 18.2153L59.3989 18.7073L59.8807 17.508L60.8826 18.1461L62.9071 19.248L63.5887 20.7625L65.4133 22.2539L67.6273 21.3595L67.389 20.5498L66.6894 19.7297L66.0949 17.5644L66.4357 16.5111L65.6157 15.6604Z" stroke="#263238" stroke-width="0.3" stroke-miterlimit="10"/>
<path d="M68.8365 16.2087L67.9678 16.1729L67.3887 16.9314L68.1241 18.433L68.8365 18.2767V16.2087Z" stroke="#263238" stroke-width="0.3" stroke-miterlimit="10"/>
<path d="M74.159 16.1191L72.0782 15.5476L71.5503 14.9736L71.1479 15.235L71.7732 16.2447L72.419 17.5951L73.3133 17.7412L73.4286 17.4875L72.7521 16.7751L74.2974 17.0058L74.159 16.1191Z" stroke="#263238" stroke-width="0.3" stroke-miterlimit="10"/>
<path d="M62.5637 39.4255L62.3945 39.692L64.1448 39.8202L64.9725 40.4403L66.0359 40.3199L66.2871 39.6331L64.9776 39.6946L62.5637 39.4255Z" stroke="#263238" stroke-width="0.3" stroke-miterlimit="10"/>
<path d="M67.6656 39.3845L66.5894 39.9662L66.8507 40.3685L68.2755 40.0534L68.4498 39.5537L67.9706 39.7177L67.6656 39.3845Z" stroke="#263238" stroke-width="0.3" stroke-miterlimit="10"/>
<path opacity="0.2" d="M69.0135 7.13452C71.1675 11.3103 72.0376 16.0302 71.5143 20.6996C70.9911 25.369 69.0977 29.7791 66.0728 33.3745C63.0478 36.9699 59.0266 39.5897 54.5155 40.9041C50.0045 42.2185 45.2054 42.1685 40.7227 40.7606C42.5215 44.2391 45.1511 47.2198 48.378 49.4384C51.605 51.6571 55.3296 53.045 59.2216 53.4791C63.1135 53.9133 67.0524 53.3802 70.689 51.9271C74.3255 50.4741 77.5472 48.146 80.0683 45.1494C82.5895 42.1529 84.3321 38.5804 85.1416 34.7489C85.9511 30.9174 85.8026 26.9453 84.7091 23.185C83.6156 19.4247 81.6109 15.9924 78.873 13.1926C76.135 10.3927 72.7484 8.31183 69.0135 7.13452Z" fill="black" stroke="#263238" stroke-width="0.3" stroke-linecap="round" stroke-linejoin="round"/>
</g>
<path d="M69.4135 52.3574C81.7552 48.1246 88.3288 34.6884 84.0961 22.3467C79.8634 10.005 66.4271 3.43135 54.0854 7.66408C41.7437 11.8968 35.1701 25.3331 39.4028 37.6748C43.6355 50.0165 57.0718 56.5901 69.4135 52.3574Z" stroke="#263238" stroke-width="0.3" stroke-miterlimit="10"/>
<path opacity="0.18" d="M69.4135 52.3574C81.7552 48.1246 88.3288 34.6884 84.0961 22.3467C79.8634 10.005 66.4271 3.43135 54.0854 7.66408C41.7437 11.8968 35.1701 25.3331 39.4028 37.6748C43.6355 50.0165 57.0718 56.5901 69.4135 52.3574Z" stroke="#263238" stroke-width="0.3" stroke-miterlimit="10"/>
<path d="M38.1832 37.373C38.1832 37.373 35.2234 37.3192 33.6039 38.3981C31.9843 39.4769 32.338 40.3149 32.8069 41.1938C33.2759 42.0728 34.5623 42.2189 36.8404 41.6628C39.1185 41.1067 41.9502 39.5999 43.726 38.4955C45.5019 37.391 51.2113 31.1562 51.2113 31.1562L52.6694 30.3413C52.6694 30.3413 54.3325 29.9723 54.7195 29.775C55.1064 29.5777 54.5734 29.3701 54.2608 29.4393C53.9481 29.5085 52.9436 29.5982 52.9436 29.5982C52.9436 29.5982 54.7758 28.7474 54.9142 28.3887C55.0526 28.0299 55.0065 27.8223 54.5837 28.1324C54.1608 28.4425 52.7079 28.8781 52.7079 28.8781C52.7079 28.8781 54.927 27.2739 54.9732 26.9895C55.0193 26.7051 54.8681 26.5206 54.5503 26.8101C54.2326 27.0997 52.1953 28.2452 52.1953 28.2452L53.6534 26.3027C53.6534 26.3027 53.6996 25.721 53.1409 26.2412C52.7054 26.686 52.2414 27.102 51.752 27.4866C51.4125 27.6588 51.0624 27.8095 50.7039 27.9377C50.6527 27.6466 50.7015 27.3467 50.8423 27.0869C51.0499 26.7691 51.4906 26.5744 51.0806 25.944C50.9653 25.7646 50.8244 26.0003 50.7347 26.3463C50.645 26.6922 49.6763 27.7301 49.6712 27.9479C49.781 28.5061 49.9213 29.0579 50.0915 29.6008C50.0915 29.6008 46.4987 33.0167 44.7485 34.4953C42.9983 35.9739 42.4652 36.2583 42.4652 36.2583L38.1832 37.373Z" fill="white"/>
<mask id="mask4_140_781" style="mask-type:luminance" maskUnits="userSpaceOnUse" x="32" y="25" width="23" height="17">
<path d="M38.1832 37.373C38.1832 37.373 35.2234 37.3192 33.6039 38.3981C31.9843 39.4769 32.338 40.3149 32.8069 41.1938C33.2759 42.0728 34.5623 42.2189 36.8404 41.6628C39.1185 41.1067 41.9502 39.5999 43.726 38.4955C45.5019 37.391 51.2113 31.1562 51.2113 31.1562L52.6694 30.3413C52.6694 30.3413 54.3325 29.9723 54.7195 29.775C55.1064 29.5777 54.5734 29.3701 54.2608 29.4393C53.9481 29.5085 52.9436 29.5982 52.9436 29.5982C52.9436 29.5982 54.7758 28.7474 54.9142 28.3887C55.0526 28.0299 55.0065 27.8223 54.5837 28.1324C54.1608 28.4425 52.7079 28.8781 52.7079 28.8781C52.7079 28.8781 54.927 27.2739 54.9732 26.9895C55.0193 26.7051 54.8681 26.5206 54.5503 26.8101C54.2326 27.0997 52.1953 28.2452 52.1953 28.2452L53.6534 26.3027C53.6534 26.3027 53.6996 25.721 53.1409 26.2412C52.7054 26.686 52.2414 27.102 51.752 27.4866C51.4125 27.6588 51.0624 27.8095 50.7039 27.9377C50.6527 27.6466 50.7015 27.3467 50.8423 27.0869C51.0499 26.7691 51.4906 26.5744 51.0806 25.944C50.9653 25.7646 50.8244 26.0003 50.7347 26.3463C50.645 26.6922 49.6763 27.7301 49.6712 27.9479C49.781 28.5061 49.9213 29.0579 50.0915 29.6008C50.0915 29.6008 46.4987 33.0167 44.7485 34.4953C42.9983 35.9739 42.4652 36.2583 42.4652 36.2583L38.1832 37.373Z" fill="white"/>
</mask>
<g mask="url(#mask4_140_781)">
<path opacity="0.3" d="M36.8406 41.6552C39.1187 41.0966 41.9504 39.5924 43.7262 38.4879C45.1972 37.5731 49.3639 33.1373 50.7554 31.6433L50.7298 31.5356C50.7298 31.5356 45.9352 36.1252 43.8954 37.4501C41.8556 38.7749 37.3685 40.6123 35.8386 41.0223C34.8473 41.2659 33.819 41.3215 32.8071 41.1863C33.2735 42.0653 34.5625 42.2164 36.8406 41.6552Z" fill="#263238"/>
</g>
<path d="M38.1832 37.373C38.1832 37.373 35.2234 37.3192 33.6039 38.3981C31.9843 39.4769 32.338 40.3149 32.8069 41.1938C33.2759 42.0728 34.5623 42.2189 36.8404 41.6628C39.1185 41.1067 41.9502 39.5999 43.726 38.4954C45.5019 37.391 51.2113 31.1562 51.2113 31.1562L52.6694 30.3413C52.6694 30.3413 54.3325 29.9723 54.7195 29.775C55.1064 29.5777 54.5734 29.3701 54.2608 29.4393C53.9481 29.5085 52.9436 29.5982 52.9436 29.5982C52.9436 29.5982 54.7758 28.7474 54.9142 28.3887C55.0526 28.0299 55.0065 27.8223 54.5837 28.1324C54.1608 28.4425 52.7079 28.8781 52.7079 28.8781C52.7079 28.8781 54.927 27.2739 54.9732 26.9895C55.0193 26.7051 54.8681 26.5206 54.5503 26.8101C54.2326 27.0997 52.1953 28.2452 52.1953 28.2452L53.6534 26.3027C53.6534 26.3027 53.6996 25.721 53.1409 26.2412C52.7054 26.686 52.2415 27.102 51.752 27.4866C51.4125 27.6588 51.0624 27.8095 50.7039 27.9377C50.6527 27.6466 50.7015 27.3467 50.8423 27.0869C51.0499 26.7691 51.4906 26.5744 51.0806 25.944C50.9653 25.7646 50.8244 26.0003 50.7347 26.3463C50.645 26.6922 49.6763 27.7301 49.6712 27.9479C49.781 28.5061 49.9213 29.0579 50.0915 29.6008C50.0915 29.6008 46.4987 33.0167 44.7485 34.4953C42.9983 35.9739 42.4652 36.2583 42.4652 36.2583L38.1832 37.373Z" stroke="#263238" stroke-width="0.3" stroke-linecap="round" stroke-linejoin="round"/>
<path d="M39.3236 86.1543L38.0039 86.8308L36.802 85.3547C36.4843 86.2055 35.7206 87.1485 35.7411 87.4894C35.7668 87.9199 37.9706 89.296 38.7675 90.1493C39.5645 91.0026 41.1328 91.5357 41.2712 91.0641C41.4095 90.5926 40.0027 89.2704 39.7644 88.0249C39.6696 87.5662 39.5004 86.8974 39.3236 86.1543Z" fill="#B2B2B2" stroke="#263238" stroke-width="0.3" stroke-linecap="round" stroke-linejoin="round"/>
</svg>
