<svg width="348" height="137" viewBox="0 0 348 137" fill="none" xmlns="http://www.w3.org/2000/svg">
<g clip-path="url(#clip0_144_41268)">
<path d="M0 16C0 8.45753 0 4.68629 2.34315 2.34315C4.68629 0 8.45753 0 16 0H332C339.542 0 343.314 0 345.657 2.34315C348 4.68629 348 8.45753 348 16V121C348 128.542 348 132.314 345.657 134.657C343.314 137 339.542 137 332 137H16C8.45753 137 4.68629 137 2.34315 134.657C0 132.314 0 128.542 0 121V16Z" fill="url(#paint0_linear_144_41268)"/>
<g opacity="0.07">
<circle cx="299.607" cy="42.1984" r="64.1996" fill="#D9D9D9"/>
<path d="M346.907 59.7135L359.464 62.9648L348.028 84.6337L341.359 85.6699C338.23 85.5853 331.62 85.3268 330.209 84.9695C328.799 84.6123 331.295 81.9409 332.72 80.6498L341.657 70.2414L346.907 59.7135Z" fill="#2C8353"/>
<path d="M260.818 74.8482L251.784 84.1556L238.601 63.5031L240.998 57.1935C242.618 54.5155 246.111 48.8972 247.118 47.8479C248.126 46.7985 249.214 50.2889 249.633 52.1653L254.262 65.0794L260.818 74.8482Z" fill="#2C8353"/>
<path d="M294.112 8.22509C294.512 7.8254 291.947 6.39319 290.615 5.72705L279.623 18.7169L262.637 32.2063L261.388 40.9494L264.385 52.1906L271.13 46.1953L283.37 33.9549L292.363 21.4647C292.78 17.218 293.712 8.62478 294.112 8.22509Z" fill="#22613E"/>
<path d="M330.625 53.9322C330.768 54.4791 333.3 52.9902 334.548 52.1774L328.896 36.1275L325.843 14.6521L318.931 9.15492L307.716 6.05918L309.48 14.9093L313.854 31.658L320.085 45.7311C323.539 48.2369 330.482 53.3853 330.625 53.9322Z" fill="#22613E"/>
<path d="M273.018 62.8595C272.467 62.7335 272.617 65.6671 272.762 67.1496L289.607 69.5531L310.063 76.7687L318.132 73.1784L326.059 64.6632L317.396 62.138L300.521 58.2783L285.161 57.3018C281.343 59.2069 273.569 62.9855 273.018 62.8595Z" fill="#22613E"/>
<path d="M284.12 -16.7554L282.121 -17.7546L276.376 -15.5064L267.383 -11.0099L257.641 -5.26444L241.653 16.2187V19.4661L238.655 23.9626C238.572 25.7112 238.456 29.3084 238.655 29.7081C238.905 30.2077 237.157 34.954 237.157 35.9532V40.4497V44.6963C237.157 45.096 236.657 49.1928 236.407 51.1912L238.655 52.1905L241.653 51.1912L243.402 46.9446L246.15 44.1967C248.065 42.4481 251.995 38.801 252.395 38.2014C252.794 37.6019 256.558 34.4544 258.39 32.9556L262.137 29.7081L266.883 26.7105C268.132 25.7112 270.78 23.6129 271.38 23.2132C271.979 22.8135 273.795 21.0482 274.627 20.2156L277.875 17.4677C278.874 16.7183 281.122 15.1196 282.121 14.7199C283.121 14.3202 283.87 12.3884 284.12 11.4724L287.367 5.47713V-2.5166C287.367 -3.11613 286.535 -3.59908 286.118 -3.76562L282.121 -1.76719C280.623 -1.51738 277.375 -0.917854 276.376 -0.518167C275.127 -0.0185604 273.878 0.730852 273.878 1.97987V5.47713C273.878 6.97595 274.128 6.97595 273.878 7.72536C273.678 8.32489 272.629 9.64053 272.129 10.2234L269.881 13.221C269.281 14.0204 267.633 13.5541 266.883 13.221C265.551 12.7214 262.737 11.6723 262.137 11.4724C261.388 11.2226 260.638 9.22419 260.638 8.97438C260.638 8.77454 259.139 5.56039 258.39 3.9783L260.638 -1.76719L264.635 -3.26601L270.63 -2.5166L276.376 -3.26601L286.368 -6.01385V-10.5103L284.12 -16.7554Z" fill="#46A771"/>
<path d="M356.539 60.4973L358.429 59.3042L359.478 53.2244L360.283 43.2023L360.408 31.8926L350.296 7.09571L347.517 5.41537L345.221 0.523598C343.767 -0.452453 340.75 -2.4135 340.304 -2.4493C339.747 -2.49405 336.591 -6.44626 335.736 -6.96329L331.888 -9.28991L328.254 -11.4873C327.912 -11.6941 324.665 -14.2414 323.084 -15.4892L321.065 -14.0824L320.369 -11.0002L323.099 -7.30649L324.028 -3.53327C324.534 -0.989623 325.621 4.26073 325.927 4.91297C326.233 5.5652 326.979 10.4145 327.314 12.7577L328.154 17.6445L328.263 23.257C328.472 24.8429 328.898 28.1945 328.929 28.9144C328.961 29.6342 329.533 32.101 329.814 33.2444L330.485 37.4451C330.61 38.6879 330.814 41.439 330.639 42.5009C330.464 43.5628 331.73 45.2037 332.384 45.8914L335.834 51.7724L342.675 55.9086C343.188 56.2189 344.032 55.7562 344.39 55.4861L344.748 51.0318C345.31 49.62 346.477 46.5309 346.652 45.469C346.871 44.1417 346.876 42.6851 345.807 42.0388L342.814 40.2292C341.531 39.4537 341.402 39.6674 340.89 39.0659C340.481 38.5847 339.898 37.0061 339.657 36.277L338.256 32.802C337.882 31.8754 339.134 30.7058 339.807 30.2369C340.923 29.3553 343.278 27.4898 343.759 27.0802C344.36 26.5681 346.458 26.9609 346.672 27.0902C346.843 27.1936 350.369 27.5741 352.111 27.7514L355.864 32.6482L355.078 36.8439L351.335 41.5865L349.003 46.8908L346.184 56.8632L350.032 59.1898L356.539 60.4973Z" fill="#46A771"/>
<path d="M255.517 83.8289L255.617 86.061L260.376 89.9868L268.68 95.6561L278.439 101.372L304.987 104.888L307.824 103.308L313.211 103.74C314.779 102.962 317.978 101.313 318.23 100.944C318.545 100.483 323.543 99.7015 324.416 99.2153L328.344 97.0277L332.054 94.9616C332.404 94.7672 336.226 93.2105 338.093 92.4565L337.873 90.0061L335.541 87.8733L330.98 88.4117L327.243 87.3478C324.783 86.5254 319.685 84.866 318.966 84.8085C318.248 84.751 313.667 82.9941 311.466 82.1228L306.806 80.4291L301.878 77.7408C300.397 77.1357 297.276 75.8432 296.635 75.5139C295.994 75.1845 293.569 74.4575 292.436 74.1351L288.455 72.6348C287.315 72.1264 284.824 70.94 283.989 70.2615C283.153 69.5829 281.101 69.8681 280.179 70.0955L273.361 70.1751L266.377 74.0642C265.854 74.3559 265.837 75.3183 265.894 75.7631L269.584 78.2828C270.532 79.4707 272.636 82.0162 273.471 82.6947C274.515 83.5429 275.777 84.2695 276.869 83.6619L279.924 81.9604C281.234 81.2312 281.112 81.0129 281.888 80.8666C282.509 80.7495 284.169 81.026 284.922 81.1789L288.634 81.6847C289.624 81.8196 290.019 83.4869 290.093 84.3037C290.304 85.7107 290.757 88.6801 290.874 89.3011C291.021 90.0774 289.639 91.7044 289.421 91.8259C289.246 91.9232 287.167 94.7964 286.15 96.2208L280.036 97.0519L276.782 94.2892L274.52 88.6867L271.07 84.0316L263.808 76.6387L259.88 78.8263L255.517 83.8289Z" fill="#46A771"/>
<path fill-rule="evenodd" clip-rule="evenodd" d="M292.066 -23.5702C267.986 -21.0167 247.361 -5.58431 237.83 17.0095C230.162 35.1882 231.531 57.1065 241.425 74.5653C251.027 91.508 267.686 103.351 287.134 107.058C296.787 108.899 309.498 108.056 319.109 104.938C335.72 99.5482 350.162 87.0859 357.78 71.5676C362.918 61.1018 364.718 53.4409 364.705 42.0908C364.685 24.595 358.642 9.36596 346.765 -3.11425C335.651 -14.7931 322.942 -21.216 306.657 -23.3843C300.901 -24.1507 297.9 -24.1887 292.066 -23.5702ZM307.237 -17.4255C309.363 -17.0768 311.175 -16.6956 311.262 -16.5777C311.35 -16.4598 312.113 -15.4641 312.959 -14.3649C314.786 -11.9883 317.278 -7.62171 316.978 -7.32194C316.862 -7.20554 315.782 -7.45734 314.579 -7.8815C310.586 -9.2909 303.153 -10.2092 297.159 -10.0348L291.447 -9.86845L290.746 -12.3665C289.273 -17.6084 289.259 -17.5259 291.703 -17.7438C296.492 -18.1704 303.578 -18.025 307.237 -17.4255ZM284.353 -12.3235C285.021 -10.4235 285.413 -8.73334 285.226 -8.56697C285.039 -8.4006 283.664 -7.87601 282.17 -7.40188C280.676 -6.92775 277.978 -5.80414 276.175 -4.90484L272.895 -3.27012L270.897 -4.18291C263.76 -7.44335 255.905 -1.80528 256.821 5.92066C257.207 9.18609 258.421 11.2265 261.096 13.1065C262.887 14.22 263.636 14.4698 266.65 14.6123C269.631 14.4698 270.381 14.22 272.183 13.1135C275.003 11.1216 276.38 8.40221 276.437 4.71361C276.477 2.06219 276.608 1.73245 277.939 0.923083C279.468 -0.00668726 284.829 -2.12452 285.654 -2.12452C286.926 -2.12452 285.542 4.09909 283.266 8.61704C280.22 14.6633 276.016 18.7056 261.154 29.8734C252.345 36.4927 243.941 44.3875 241.021 48.7865C239.251 51.4524 239.225 51.4689 238.888 50.1285C238.701 49.3825 238.665 44.9081 238.809 40.1853C239.1 30.6627 240.111 25.817 243.394 18.2135C248.664 6.00859 259.036 -5.0857 270.913 -11.2194C274.896 -13.2768 282.635 -16.2824 283.003 -15.9147C283.078 -15.8393 283.686 -14.223 284.353 -12.3235ZM325.854 -11.9818C336.304 -6.7409 346.164 2.86006 351.997 13.4727C354.309 17.6804 357.129 25.5542 358.133 30.5998C359.069 35.3126 358.987 49.47 357.997 53.8315L357.261 57.079L355.135 56.9806C353.965 56.9266 352.217 56.6209 351.248 56.3016C349.628 55.767 349.51 55.5947 349.768 54.1513C349.922 53.2885 350.317 50.2204 350.646 47.3331L351.244 42.0843L353.195 40.6949C359.239 36.3917 357.955 26.5485 350.968 23.6293C347.467 22.1664 342.585 23.1506 340.02 25.837C335.388 30.6887 336.912 38.7824 343.027 41.8065L345.212 42.8871L344.874 45.9862C344.263 51.5803 343.976 52.8323 343.304 52.8323C342.27 52.8323 336.68 47.4086 335.317 45.0829C331.827 39.1291 330.336 32.9459 328.335 16.1476C326.896 4.05812 325.084 -4.01504 322.437 -10.1377C320.445 -14.7466 320.394 -14.7196 325.854 -11.9818ZM308.867 -3.28811C314.648 -2.00612 320.067 0.269095 320.353 1.5336C321.271 5.58142 321.615 7.5264 321.444 7.69676C321.337 7.80468 319.131 6.86942 316.544 5.6184C311.52 3.1898 304.786 1.46816 302.53 2.03671C300.239 2.61376 300.334 3.9537 303.057 9.50235C304.681 12.8108 306.287 17.2543 307.613 22.1064C312.225 38.9827 314.025 43.7425 317.791 49.0083C320.432 52.7014 323.134 54.9467 327.552 57.119C330.68 58.6573 337.065 60.3264 339.822 60.3264C341.716 60.3264 341.448 61.5385 338.491 66.3427C335.768 70.7683 329.336 77.6983 325.822 79.994L323.791 81.32L320.839 80.3043C316.848 78.9313 316.628 78.5791 319.003 77.3671C321.608 76.0381 327.985 70.8627 329.644 68.7314C332 65.7047 332.266 64.9034 331.373 63.5404C330.709 62.5262 330.171 62.3249 328.126 62.3249C324.09 62.3249 318.257 61.3481 311.115 59.4766C289.312 53.7621 282.76 53.4788 274.054 57.8739C271.07 59.3802 265.182 64.685 262.736 68.0704L261.653 69.5692L260.633 68.3636C257.122 64.2134 253.213 53.9724 252.791 47.8188L252.531 44.0302L255.219 41.6761L257.907 39.3219L258.233 43.704C258.817 51.5658 261.066 58.9146 263.084 59.555C264.711 60.0716 265.844 59.1289 267.943 55.5107C269.302 53.1671 272.822 49.1227 279.506 42.2222C284.791 36.7664 290.135 30.8736 291.381 29.1264C298.733 18.8235 299.458 9.5628 293.913 -3.21417C293.621 -3.88564 293.881 -4.10047 295.213 -4.28733C297.863 -4.65903 305.06 -4.13245 308.867 -3.28811ZM268.66 1.12942C271.611 2.65522 271.436 7.2691 268.373 8.72995C263.679 10.9682 259.911 4.02965 264.35 1.32277C266.134 0.480782 266.634 0.480782 268.66 1.12942ZM291.473 12.8093C290.765 20.8369 288.012 25.2645 276.02 37.6617C271.272 42.5709 266.85 47.3431 266.195 48.2669C265.321 49.4994 264.907 49.7652 264.642 49.2661C263.874 47.8223 263.625 42.1562 264.166 38.4591L264.732 34.5966L267.533 32.5982C279.885 23.7876 288.019 15.673 290.17 10.0144C291.044 7.71475 291.782 9.29751 291.473 12.8093ZM313.877 10.574C315.793 11.5128 318.477 13.147 319.843 14.2057L322.326 16.1301L322.985 22.1159C324.371 34.72 326.912 44.0552 330.546 49.9021C332.011 52.2583 332.014 52.2758 330.837 51.8281C328.672 51.0053 325.597 48.83 323.599 46.7086C319.836 42.7143 317.728 37.7027 313.881 23.6048C312.681 19.2082 311.129 14.0932 310.431 12.2387C309.557 9.91852 309.353 8.86684 309.778 8.86684C310.116 8.86684 311.961 9.63474 313.877 10.574ZM350.123 29.8119C352.515 32.2035 351.917 35.3396 348.823 36.6325C345.96 37.8291 343.09 35.9386 343.09 32.8565C343.09 28.7692 347.271 26.9596 350.123 29.8119ZM294.878 32.7991C292.254 34.0176 290.726 35.5309 289.586 38.0414C285.905 46.1476 294.343 54.9697 302.513 51.5568C304.976 50.5281 307.036 48.5367 308.169 46.0876C311.943 37.9375 303.02 29.017 294.878 32.7991ZM300.341 37.8316C302.06 38.4851 303.667 41.191 303.305 42.8197C302.579 46.0786 298.425 47.4061 295.859 45.1993C293.445 43.1235 294.275 39.0856 297.376 37.8166C298.716 37.2681 298.861 37.269 300.341 37.8316ZM249.222 58.2905C250.816 63.2651 253.789 69.207 256.336 72.5104L257.523 74.0492L255.017 76.9304C253.639 78.5147 252.327 79.8112 252.102 79.8112C250.948 79.8112 244.323 68.3821 242.638 63.486L241.654 60.6247L243.444 56.8557C244.429 54.7823 245.607 52.6745 246.063 52.1708C247.038 51.0932 246.717 50.4712 249.222 58.2905ZM306.119 63.9756C312.027 65.4959 317.985 66.8993 319.359 67.0941C320.733 67.289 322.033 67.5498 322.247 67.6737C322.82 68.0044 318.259 71.4877 315.362 72.9331C310.318 75.4491 309.628 75.5185 306.064 73.8733C294.191 68.3941 287.194 66.3142 279.227 65.8956L273.068 65.5723L276.268 63.7353C280.86 61.0998 282.138 60.8311 289.132 61.0319C294.756 61.1938 296.447 61.4865 306.119 63.9756ZM351.48 62.6491C353.323 63.1023 354.906 63.5339 354.999 63.6084C355.467 63.9846 350.879 72.6013 348.234 76.3139C343.722 82.6454 343.941 82.514 337.517 82.7339L332.034 82.9217L335.707 79.2431C339.616 75.3282 343.789 69.4118 345.967 64.698C346.698 63.1183 347.483 61.8253 347.713 61.8253C347.943 61.8253 349.638 62.196 351.48 62.6491ZM290.132 74.0617C292.467 74.8041 298.875 77.3331 304.37 79.6813C319.507 86.1497 328.245 88.8041 334.402 88.8041C335.608 88.8041 336.595 88.984 336.595 89.2038C336.595 89.7543 329.506 94.3572 325.854 96.1778C312.208 102.98 294.487 104.268 280.172 99.4982C275.378 97.9009 268.274 94.3238 264.402 91.5579C260.77 88.964 256.658 85.3773 256.658 84.8032C256.658 84.2122 261.18 79.3115 261.725 79.3115C261.973 79.3115 263.126 80.1784 264.288 81.2375C265.45 82.2967 267.806 84.1153 269.523 85.2784C272.167 87.0695 272.645 87.618 272.645 88.864C272.645 92.0585 275.227 96.0154 278.391 97.6711C279.215 98.1028 281.148 98.4735 282.686 98.495C290.084 98.5999 294.871 90.9049 291.505 84.3176C289.83 81.0382 287.237 79.1941 283.914 78.9183C280.562 78.6406 279.348 78.9263 276.938 80.5616L275.059 81.8371L271.978 79.6343C268.509 77.1527 266.828 75.4696 267.324 74.9729C267.509 74.7886 269.175 74.1076 271.027 73.4601C275.726 71.8169 283.875 72.0732 290.132 74.0617ZM285.674 85.768C287.232 87.3267 287.49 88.7012 286.553 90.4608C285.213 92.9753 282.242 93.5634 279.957 91.7653C278.929 90.9574 278.641 90.2944 278.641 88.7451C278.641 84.6229 282.777 82.8717 285.674 85.768Z" fill="black"/>
</g>
</g>
<defs>
<linearGradient id="paint0_linear_144_41268" x1="88.5" y1="39" x2="280" y2="137" gradientUnits="userSpaceOnUse">
<stop/>
<stop offset="0.693422" stop-color="#202020"/>
</linearGradient>
<clipPath id="clip0_144_41268">
<path d="M0 16C0 8.45753 0 4.68629 2.34315 2.34315C4.68629 0 8.45753 0 16 0H332C339.542 0 343.314 0 345.657 2.34315C348 4.68629 348 8.45753 348 16V121C348 128.542 348 132.314 345.657 134.657C343.314 137 339.542 137 332 137H16C8.45753 137 4.68629 137 2.34315 134.657C0 132.314 0 128.542 0 121V16Z" fill="white"/>
</clipPath>
</defs>
</svg>
