<svg width="27" height="26" viewBox="0 0 27 26" fill="none" xmlns="http://www.w3.org/2000/svg">
<path d="M18 6.80331C17.9999 7.45517 17.7322 8.08055 17.2553 8.54314C16.1573 9.60914 15.0919 10.7206 13.9523 11.7476C13.825 11.8593 13.6582 11.9196 13.4861 11.9162C13.314 11.9127 13.1498 11.8458 13.0275 11.7292L9.74476 8.54423C9.2673 8.08148 8.99933 7.45564 8.99933 6.80331C8.99933 6.15098 9.2673 5.52514 9.74476 5.06239C9.98287 4.83141 10.2661 4.64808 10.5781 4.52297C10.8901 4.39787 11.2248 4.33346 11.5628 4.33346C11.9007 4.33346 12.2354 4.39787 12.5474 4.52297C12.8594 4.64808 13.1427 4.83141 13.3808 5.06239L13.5 5.17831L13.6193 5.06239C13.9767 4.7145 14.4335 4.47689 14.9316 4.37981C15.4297 4.28273 15.9465 4.33058 16.4163 4.51727C16.8861 4.70396 17.2875 5.02103 17.5695 5.42813C17.8516 5.83523 18.0014 6.31394 18 6.80331Z" stroke="black" stroke-width="1.3" stroke-linejoin="round"/>
<path d="M20.25 21.6667L24.552 17.524C24.6786 17.4022 24.7498 17.237 24.75 17.0647V11.375C24.75 10.944 24.5722 10.5307 24.2557 10.226C23.9393 9.9212 23.5101 9.75 23.0625 9.75C22.6149 9.75 22.1857 9.9212 21.8693 10.226C21.5528 10.5307 21.375 10.944 21.375 11.375V16.25" stroke="black" stroke-width="1.3" stroke-linecap="round" stroke-linejoin="round"/>
<path d="M20.25 17.3333L21.2152 16.4038C21.2662 16.3552 21.3065 16.2973 21.3339 16.2335C21.3614 16.1697 21.3753 16.1013 21.375 16.0322C21.3742 15.935 21.3457 15.8398 21.2925 15.757C21.2393 15.6743 21.1636 15.6072 21.0735 15.5632L20.5751 15.3238C20.1529 15.1205 19.675 15.0502 19.209 15.1229C18.743 15.1956 18.3126 15.4076 17.9786 15.7289L16.9718 16.6985C16.5498 17.1047 16.3126 17.6557 16.3125 18.2303V21.6667M6.75 21.6667L2.448 17.524C2.32138 17.4022 2.25016 17.237 2.25 17.0647V11.375C2.25 10.944 2.42779 10.5307 2.74426 10.226C3.06072 9.9212 3.48995 9.75 3.9375 9.75C4.38505 9.75 4.81428 9.9212 5.13074 10.226C5.44721 10.5307 5.625 10.944 5.625 11.375V16.25" stroke="black" stroke-width="1.3" stroke-linecap="round" stroke-linejoin="round"/>
<path d="M6.75 17.3333L5.78475 16.4038C5.68395 16.3043 5.62676 16.1712 5.625 16.0322C5.625 15.834 5.742 15.653 5.9265 15.5631L6.42487 15.3237C6.8471 15.1204 7.32503 15.0502 7.79101 15.1229C8.257 15.1956 8.68743 15.4076 9.02138 15.7289L10.0282 16.6985C10.4502 17.1047 10.6874 17.6557 10.6875 18.2303V21.6666" stroke="black" stroke-width="1.3" stroke-linecap="round" stroke-linejoin="round"/>
</svg>
