<svg width="30" height="30" viewBox="0 0 30 30" fill="none" xmlns="http://www.w3.org/2000/svg">
<path d="M22.9335 12.9483C22.9335 12.7443 22.8526 12.5486 22.7086 12.4044C22.5646 12.2601 22.3694 12.1791 22.1657 12.1791C21.9621 12.1791 21.7668 12.2601 21.6229 12.4044C21.4789 12.5486 21.398 12.7443 21.398 12.9483H22.9335ZM8.60202 12.9483C8.60202 12.7443 8.52113 12.5486 8.37715 12.4044C8.23317 12.2601 8.03788 12.1791 7.83426 12.1791C7.63064 12.1791 7.43536 12.2601 7.29138 12.4044C7.14739 12.5486 7.0665 12.7443 7.0665 12.9483H8.60202ZM23.6705 15.5433C23.7408 15.6188 23.8256 15.6795 23.9198 15.7215C24.0139 15.7636 24.1156 15.7862 24.2187 15.788C24.3218 15.7898 24.4242 15.7708 24.5198 15.7321C24.6154 15.6934 24.7022 15.6358 24.7751 15.5628C24.848 15.4897 24.9055 15.4027 24.9441 15.307C24.9827 15.2112 25.0017 15.1086 24.9999 15.0053C24.9981 14.902 24.9755 14.8001 24.9335 14.7058C24.8916 14.6114 24.8311 14.5265 24.7556 14.4561L23.6705 15.5433ZM15 5.76858L15.5425 5.22497C15.3986 5.08092 15.2035 5 15 5C14.7965 5 14.6014 5.08092 14.4575 5.22497L15 5.76858ZM5.24436 14.4561C5.16893 14.5265 5.10843 14.6114 5.06646 14.7058C5.0245 14.8001 5.00194 14.902 5.00012 15.0053C4.9983 15.1086 5.01726 15.2112 5.05588 15.307C5.09449 15.4027 5.15197 15.4897 5.22487 15.5628C5.29778 15.6358 5.38462 15.6934 5.48022 15.7321C5.57582 15.7708 5.67821 15.7898 5.7813 15.788C5.88439 15.7862 5.98605 15.7636 6.08023 15.7215C6.17441 15.6795 6.25917 15.6188 6.32946 15.5433L5.24436 14.4561ZM9.88162 25H20.1184V23.4615H9.88162V25ZM22.9335 22.1794V12.9483H21.398V22.1794H22.9335ZM8.60202 22.1794V12.9483H7.0665V22.1794H8.60202ZM24.7556 14.4561L15.5425 5.22497L14.4575 6.31219L23.6705 15.5433L24.7556 14.4561ZM14.4575 5.22497L5.24436 14.4561L6.32946 15.5433L15.5425 6.31219L14.4575 5.22497ZM20.1184 25C20.865 25 21.581 24.7028 22.109 24.1739C22.6369 23.6449 22.9335 22.9275 22.9335 22.1794H21.398C21.398 22.8871 20.8247 23.4615 20.1184 23.4615V25ZM9.88162 23.4615C9.17528 23.4615 8.60202 22.8871 8.60202 22.1794H7.0665C7.0665 22.9275 7.3631 23.6449 7.89103 24.1739C8.41897 24.7028 9.135 25 9.88162 25V23.4615Z" fill="#46A771"/>
</svg>
