<svg width="31" height="30" viewBox="0 0 31 30" fill="none" xmlns="http://www.w3.org/2000/svg">
<path fill-rule="evenodd" clip-rule="evenodd" d="M5 9.77692C5 9.57087 5.08104 9.37326 5.2253 9.22755C5.36955 9.08185 5.56521 9 5.76922 9H23.2048C23.4088 9 23.6045 9.08185 23.7487 9.22755C23.893 9.37326 23.974 9.57087 23.974 9.77692C23.974 9.98297 23.893 10.1806 23.7487 10.3263C23.6045 10.472 23.4088 10.5538 23.2048 10.5538H5.76922C5.56521 10.5538 5.36955 10.472 5.2253 10.3263C5.08104 10.1806 5 9.98297 5 9.77692ZM5 14.9564C5 14.7503 5.08104 14.5527 5.2253 14.407C5.36955 14.2613 5.56521 14.1795 5.76922 14.1795H23.2048C23.4088 14.1795 23.6045 14.2613 23.7487 14.407C23.893 14.5527 23.974 14.7503 23.974 14.9564C23.974 15.1624 23.893 15.3601 23.7487 15.5058C23.6045 15.6515 23.4088 15.7333 23.2048 15.7333H5.76922C5.56521 15.7333 5.36955 15.6515 5.2253 15.5058C5.08104 15.3601 5 15.1624 5 14.9564ZM20.1402 18.5095C20.2796 18.3889 20.4572 18.3226 20.6407 18.3226C20.8243 18.3226 21.0018 18.3889 21.1412 18.5095L24.7309 21.6172C24.8077 21.6836 24.8708 21.7646 24.9165 21.8556C24.9623 21.9466 24.9899 22.0458 24.9977 22.1476C25.0055 22.2494 24.9934 22.3517 24.962 22.4487C24.9307 22.5458 24.8807 22.6356 24.815 22.7132C24.7493 22.7907 24.6691 22.8544 24.579 22.9007C24.4889 22.9469 24.3906 22.9747 24.2899 22.9826C24.1891 22.9905 24.0878 22.9783 23.9917 22.9466C23.8956 22.915 23.8067 22.8645 23.7299 22.7981L20.6407 20.1224L17.5516 22.7961C17.4755 22.8664 17.3862 22.9206 17.289 22.9554C17.1918 22.9902 17.0887 23.0049 16.9858 22.9986C16.8828 22.9923 16.7822 22.9652 16.6899 22.9189C16.5975 22.8725 16.5153 22.8079 16.4482 22.7289C16.381 22.6498 16.3303 22.5579 16.2991 22.4587C16.2678 22.3594 16.2566 22.2548 16.2662 22.1511C16.2757 22.0474 16.3058 21.9467 16.3547 21.855C16.4035 21.7633 16.4701 21.6824 16.5506 21.6172L20.1402 18.5095ZM5 20.1359C5 19.9298 5.08104 19.7322 5.2253 19.5865C5.36955 19.4408 5.56521 19.359 5.76922 19.359H13.9742C14.1782 19.359 14.3739 19.4408 14.5181 19.5865C14.6624 19.7322 14.7434 19.9298 14.7434 20.1359C14.7434 20.3419 14.6624 20.5395 14.5181 20.6852C14.3739 20.8309 14.1782 20.9128 13.9742 20.9128H5.76922C5.56521 20.9128 5.36955 20.8309 5.2253 20.6852C5.08104 20.5395 5 20.3419 5 20.1359Z" fill="black"/>
</svg>
