<svg width="30" height="30" viewBox="0 0 30 30" fill="none" xmlns="http://www.w3.org/2000/svg">
<g clip-path="url(#clip0_66_25383)">
<path d="M20 15C20 14.4696 20.2107 13.9609 20.5858 13.5858C20.9609 13.2107 21.4696 13 22 13C22.5304 13 23.0391 13.2107 23.4142 13.5858C23.7893 13.9609 24 14.4696 24 15C24 15.5304 23.7893 16.0391 23.4142 16.4142C23.0391 16.7893 22.5304 17 22 17C21.4696 17 20.9609 16.7893 20.5858 16.4142C20.2107 16.0391 20 15.5304 20 15ZM13 15C13 14.4696 13.2107 13.9609 13.5858 13.5858C13.9609 13.2107 14.4696 13 15 13C15.5304 13 16.0391 13.2107 16.4142 13.5858C16.7893 13.9609 17 14.4696 17 15C17 15.5304 16.7893 16.0391 16.4142 16.4142C16.0391 16.7893 15.5304 17 15 17C14.4696 17 13.9609 16.7893 13.5858 16.4142C13.2107 16.0391 13 15.5304 13 15ZM6 15C6 14.4696 6.21071 13.9609 6.58579 13.5858C6.96086 13.2107 7.46957 13 8 13C8.53043 13 9.03914 13.2107 9.41421 13.5858C9.78929 13.9609 10 14.4696 10 15C10 15.5304 9.78929 16.0391 9.41421 16.4142C9.03914 16.7893 8.53043 17 8 17C7.46957 17 6.96086 16.7893 6.58579 16.4142C6.21071 16.0391 6 15.5304 6 15Z" fill="black"/>
</g>
<defs>
<clipPath id="clip0_66_25383">
<rect width="24" height="24" fill="white" transform="matrix(0 -1 1 0 3 27)"/>
</clipPath>
</defs>
</svg>
