<svg width="22" height="22" viewBox="0 0 22 22" fill="none" xmlns="http://www.w3.org/2000/svg">
<g clip-path="url(#clip0_66_25368)">
<path d="M19.0667 14.5816C18.4731 16.4673 17.2936 18.1145 15.6996 19.2837C14.1056 20.453 12.1803 21.0834 10.2034 21.0834C7.7404 21.0834 5.37827 20.105 3.63666 18.3634C1.89505 16.6218 0.916626 14.2596 0.916626 11.7966C0.916575 9.81976 1.54701 7.89441 2.71629 6.30043C3.88557 4.70646 5.53274 3.52694 7.41838 2.93335" stroke="black" stroke-width="1.5" stroke-linecap="round"/>
<path d="M20.9956 8.92997C20.465 7.04024 19.4572 5.31872 18.0693 3.93078C16.6814 2.54285 14.9599 1.53513 13.0701 1.00445C11.4124 0.541621 9.99167 1.97951 9.99167 3.69973V10.4495C9.99167 11.3096 10.6894 12.0074 11.5495 12.0074H18.2993C20.0206 12.0074 21.4585 10.5867 20.9956 8.92997Z" stroke="black" stroke-width="1.5"/>
</g>
<defs>
<clipPath id="clip0_66_25368">
<rect width="22" height="22" fill="white"/>
</clipPath>
</defs>
</svg>
